<svg width="40" height="40" viewBox="0 0 40 40" fill="none" xmlns="http://www.w3.org/2000/svg">
<path d="M40 20C40 8.9543 31.0457 0 20 0C8.9543 0 0 8.9543 0 20C0 31.0457 8.9543 40 20 40C31.0457 40 40 31.0457 40 20Z" fill="black" fill-opacity="0.06"/>
<path d="M26.983 22.9462C27.0292 22.2353 26.9335 21.5222 26.7017 20.8506C26.4699 20.179 26.107 19.563 25.6351 19.0404C25.1633 18.5178 24.5924 18.0996 23.9576 17.8113C23.3227 17.5231 22.6372 17.3709 21.943 17.3641C21.3663 17.3343 20.7902 17.4325 20.2539 17.652C19.7175 17.8714 19.2336 18.2069 18.835 18.6357V12.1052H16V28.2697H18.6V26.955C18.9945 27.472 19.5038 27.8846 20.0853 28.1583C20.6669 28.432 21.3039 28.5589 21.943 28.5283C22.6372 28.5215 23.3227 28.3693 23.9576 28.0811C24.5924 27.7928 25.1633 27.3746 25.6351 26.852C26.107 26.3294 26.4699 25.7134 26.7017 25.0418C26.9335 24.3702 27.0292 23.6571 26.983 22.9462ZM24.106 22.9246C24.1352 23.3036 24.0871 23.6847 23.9649 24.0436C23.8427 24.4024 23.649 24.7312 23.3961 25.009C23.1432 25.2868 22.8367 25.5075 22.4961 25.657C22.1556 25.8065 21.7884 25.8815 21.418 25.8774C21.0514 25.8843 20.6876 25.8113 20.3505 25.6631C20.0134 25.515 19.7109 25.2952 19.4627 25.0181C19.2146 24.741 19.0266 24.4131 18.9112 24.0559C18.7957 23.6988 18.7554 23.3205 18.793 22.9462C18.7552 22.5708 18.7952 22.1914 18.9103 21.8329C19.0254 21.4744 19.213 21.145 19.4609 20.8662C19.7087 20.5874 20.0112 20.3655 20.3485 20.2151C20.6858 20.0647 21.0503 19.9892 21.418 19.9935C21.7857 19.9923 22.1497 20.0686 22.4875 20.2178C22.8253 20.3669 23.1296 20.5857 23.3817 20.8605C23.6337 21.1353 23.828 21.4603 23.9526 21.8154C24.0772 22.1705 24.1294 22.548 24.106 22.9246Z" fill="white"/>
</svg>
