<svg width="178" height="13" viewBox="0 0 178 13" fill="none" xmlns="http://www.w3.org/2000/svg">
<path d="M10.1616 1.39505H5.75121V12.8308H4.41043V1.39505H0V0.167969H10.1616V1.39505Z" fill="white"/>
<path d="M23.0753 12.8308H21.7306V7.0404H14.2231V12.8308H12.8784V0.167969H14.2231V5.81332H21.7306V0.167969H23.0753V12.8308Z" fill="white"/>
<path d="M33.4801 1.39505H28.0151V5.83292H33.3194V7.05608H28.0151V11.6077H33.6213V12.8308H26.6704V0.167969H33.4801V1.39505Z" fill="white"/>
<path d="M49.687 11.7366C47.8954 12.7207 46.4449 12.999 44.8845 12.999C40.137 12.999 37.769 9.78821 37.769 6.53821C37.769 3.3431 40.1879 0.00292969 45.1511 0.00292969C47.374 0.00292969 48.9147 0.728201 49.542 1.11632V4.02916C49.0402 3.64105 47.4798 2.65311 45.3667 2.65311C42.8224 2.65311 40.9406 4.17422 40.9406 6.49509C40.9406 8.98453 42.9832 10.3763 45.2766 10.3763C46.4253 10.3763 47.4994 10.043 48.5187 9.50202L49.6831 8.81596V11.7366H49.687Z" fill="white"/>
<path d="M59.7233 2.69231C57.5357 2.69231 55.8891 4.06445 55.8891 6.57349C55.8891 9.60003 58.2884 10.4351 59.7429 10.4351C61.6952 10.4351 63.5966 9.09822 63.5966 6.5931C63.5927 4.23303 62.1069 2.69231 59.7233 2.69231ZM59.688 12.999C55.4579 12.999 52.7175 9.82349 52.7175 6.51861C52.7175 3.56656 55.0815 0.00292969 59.7429 0.00292969C64.0592 0.00292969 66.7486 3.21372 66.7486 6.51861C66.7486 9.45106 64.4356 12.999 59.688 12.999Z" fill="white"/>
<path d="M82.4104 12.8308H79.8661L73.1113 4.99788V12.8308H70.0808V0.167969H72.8604L79.3996 7.63238V0.167969H82.4104V12.8308Z" fill="white"/>
<path d="M88.9418 2.47317V5.37033H90.2159C91.0039 5.33113 91.1999 5.33113 91.5253 5.14687C91.9722 4.90381 92.1879 4.4412 92.1879 3.91979C92.1879 2.47317 90.8275 2.47317 90.4864 2.47317H88.9418ZM90.5531 0.167983C91.6625 0.167983 92.7759 0.167983 93.7599 0.799165C94.4068 1.24609 95.3555 2.28499 95.3555 3.7865C95.3555 5.90351 93.7795 6.64446 93.2581 6.90712C94.1363 7.35405 94.7439 8.63209 95.0144 9.28288C95.3555 10.0081 95.873 11.196 96.1984 11.9174L96.61 12.8269H93.2581C92.9876 12.2702 91.933 9.76508 91.6821 9.26328C90.8588 7.66768 90.2473 7.66768 89.3887 7.66768H88.9418V12.8269H85.8604V0.164062H90.5531V0.167983Z" fill="white"/>
<path d="M105.109 3.21411L103.318 8.11459H107.081L105.109 3.21411ZM112.26 12.8308H108.979L107.975 10.3257H102.51L101.597 12.8308H98.3701L103.298 0.167969H106.826L112.26 12.8308Z" fill="white"/>
<path d="M127.036 12.8308H124.492L117.737 4.99788V12.8308H114.71V0.167969H117.486L124.029 7.63238V0.167969H127.036V12.8308Z" fill="white"/>
<path d="M137.719 2.41496C137.162 1.98764 136.178 1.26236 134.94 1.26236C133.003 1.26236 132.666 2.74819 132.666 3.2108C132.666 4.49276 133.901 5.14355 134.979 5.70024C137.362 6.92732 138.221 7.64867 138.221 9.52654C138.221 11.9219 136.249 13 134.653 13C133.505 13 132.395 12.5374 131.446 11.8474V10.1381C132.093 10.8046 133.258 11.7337 134.618 11.7337C136.339 11.7337 136.892 10.3773 136.892 9.6167C136.892 8.81695 136.661 8.05639 134.152 6.83323C132.089 5.82961 131.337 4.77111 131.337 3.35977C131.337 1.37214 132.913 0 134.955 0C136.316 0 137.229 0.537093 137.715 0.835042V2.41496H137.719Z" fill="white"/>
<path d="M151.495 12.8308H150.151V7.0404H142.643V12.8308H141.299V0.167969H142.643V5.81332H150.151V0.167969H151.495V12.8308Z" fill="white"/>
<path d="M165.817 6.46372C165.817 3.9586 163.955 1.32018 160.709 1.32018C157.572 1.32018 155.62 3.79002 155.62 6.51861C155.62 9.60003 158.003 11.6818 160.618 11.6818C163.543 11.6818 165.817 9.50594 165.817 6.46372ZM154.189 6.49901C154.189 3.15884 156.608 0.00292969 160.712 0.00292969C164.692 0.00292969 167.252 3.04907 167.252 6.49901C167.252 10.2861 164.311 12.999 160.638 12.999C157.055 12.999 154.189 10.2312 154.189 6.49901Z" fill="white"/>
<path d="M171.599 1.39505V5.88781H173.607C176.061 5.88781 176.347 4.55096 176.347 3.64143C176.347 2.7319 176.061 1.39505 173.607 1.39505H171.599ZM173.748 0.167969C176.813 0.167969 177.778 1.91254 177.778 3.64143C177.778 5.3664 176.81 7.11489 173.748 7.11489H171.599V12.8347H170.255V0.171889H173.748V0.167969Z" fill="white"/>
</svg>
