<svg width="40" height="40" viewBox="0 0 40 40" fill="none" xmlns="http://www.w3.org/2000/svg">
<path d="M40 20C40 8.9543 31.0457 0 20 0C8.9543 0 0 8.9543 0 20C0 31.0457 8.9543 40 20 40C31.0457 40 40 31.0457 40 20Z" fill="black" fill-opacity="0.06"/>
<path d="M21.0719 29.7775V21.3504H23.8279L24.2409 18.0662H21.0719V15.9705C21.0719 15.0201 21.3289 14.3715 22.6579 14.3715H24.3519V11.4341C23.5318 11.345 22.7076 11.3018 21.8829 11.3048C21.3221 11.263 20.7591 11.3477 20.2335 11.5527C19.7079 11.7578 19.2323 12.0784 18.8401 12.492C18.448 12.9057 18.1487 13.4023 17.9633 13.9472C17.7779 14.492 17.7109 15.0719 17.7669 15.6461V18.0682H15.0039V21.3525H17.7669V29.7795L21.0719 29.7775Z" fill="white"/>
</svg>
