<svg width="40" height="40" viewBox="0 0 40 40" fill="none" xmlns="http://www.w3.org/2000/svg">
<path d="M40 20C40 8.9543 31.0457 0 20 0C8.9543 0 0 8.9543 0 20C0 31.0457 8.9543 40 20 40C31.0457 40 40 31.0457 40 20Z" fill="black" fill-opacity="0.06"/>
<path d="M16.29 29.4961C15.5416 29.4815 14.801 29.3364 14.1 29.0671C13.5014 28.8342 12.959 28.4712 12.51 28.0028C12.0518 27.5396 11.6978 26.9791 11.473 26.3607C11.2111 25.6432 11.0698 24.8853 11.055 24.1192C11.011 23.1391 11 22.824 11 20.3157C11 17.8074 11.011 17.4933 11.055 16.507C11.0694 15.7393 11.2107 14.9796 11.473 14.2604C11.699 13.6459 12.0529 13.0894 12.51 12.6296C12.9584 12.1603 13.5009 11.7968 14.1 11.5643C14.8008 11.2942 15.5415 11.1491 16.29 11.1353C17.249 11.0891 17.555 11.0789 20 11.0789C22.445 11.0789 22.75 11.0891 23.71 11.1353C24.4585 11.1491 25.1992 11.2942 25.9 11.5643C26.4991 11.7966 27.0417 12.1602 27.49 12.6296C27.9471 13.0894 28.301 13.6459 28.527 14.2604C28.7889 14.978 28.9302 15.7359 28.945 16.5019C28.989 17.4923 29 17.8074 29 20.3157C29 22.824 28.989 23.1391 28.945 24.1244C28.9303 24.8904 28.789 25.6483 28.527 26.3658C28.2968 26.9791 27.9441 27.5363 27.4917 28.0015C27.0393 28.4666 26.4971 28.8296 25.9 29.0671C25.2002 29.3359 24.4611 29.481 23.714 29.4961C22.751 29.5412 22.445 29.5525 20 29.5525C17.555 29.5525 17.249 29.5412 16.29 29.4961ZM16.364 12.7969C15.7931 12.8037 15.2276 12.9109 14.692 13.114C14.3014 13.2633 13.948 13.4996 13.657 13.8058C13.3584 14.1039 13.1288 14.4668 12.985 14.868C12.7859 15.417 12.681 15.9972 12.675 16.583C12.631 17.557 12.622 17.8525 12.622 20.3157C12.622 22.7789 12.63 23.0755 12.674 24.0484C12.6801 24.6341 12.785 25.2144 12.984 25.7634C13.128 26.1645 13.3576 26.5274 13.656 26.8256C13.9466 27.132 14.3002 27.368 14.691 27.5163C15.2264 27.7201 15.792 27.8277 16.363 27.8345C17.312 27.8796 17.596 27.8879 20 27.8879C22.404 27.8879 22.687 27.8796 23.636 27.8345C24.207 27.8277 24.7726 27.7201 25.308 27.5163C25.6961 27.363 26.0485 27.1279 26.3425 26.8261C26.6365 26.5244 26.8656 26.1627 27.015 25.7644C27.2134 25.2152 27.3182 24.6351 27.325 24.0494C27.369 23.0765 27.377 22.783 27.377 20.3167C27.377 17.8505 27.369 17.559 27.325 16.585C27.3184 15.9994 27.2135 15.4192 27.015 14.8701C26.8712 14.4689 26.6416 14.1059 26.343 13.8078C26.052 13.5016 25.6986 13.2654 25.308 13.1161C24.7724 12.913 24.2069 12.8057 23.636 12.799C22.688 12.7528 22.4 12.7425 20 12.7425C17.6 12.7425 17.312 12.7528 16.364 12.7969ZM15.378 20.3157C15.3778 19.3775 15.6487 18.4602 16.1565 17.68C16.6642 16.8998 17.386 16.2916 18.2305 15.9324C19.0751 15.5732 20.0044 15.4791 20.9011 15.6621C21.7977 15.845 22.6214 16.2967 23.2679 16.9601C23.9144 17.6234 24.3547 18.4687 24.5331 19.3889C24.7115 20.3091 24.6201 21.2629 24.2703 22.1297C23.9205 22.9966 23.3281 23.7375 22.5679 24.2588C21.8078 24.7801 20.9142 25.0583 20 25.0583C18.7743 25.0583 17.5989 24.5587 16.7321 23.6693C15.8653 22.7799 15.3783 21.5736 15.378 20.3157ZM17 20.3157C17 20.9247 17.1759 21.5199 17.5056 22.0263C17.8352 22.5326 18.3038 22.9272 18.8519 23.1603C19.4001 23.3933 20.0033 23.4543 20.5853 23.3355C21.1672 23.2167 21.7018 22.9234 22.1213 22.4928C22.5409 22.0622 22.8266 21.5136 22.9424 20.9164C23.0581 20.3191 22.9987 19.7 22.7716 19.1374C22.5446 18.5748 22.1601 18.094 21.6667 17.7556C21.1734 17.4173 20.5933 17.2368 20 17.2368C19.2044 17.2368 18.4413 17.5611 17.8787 18.1386C17.3161 18.716 17 19.4991 17 20.3157ZM23.723 15.3894C23.7222 15.1699 23.785 14.955 23.9033 14.7721C24.0216 14.5893 24.1902 14.4466 24.3876 14.3621C24.5851 14.2777 24.8025 14.2553 25.0123 14.2979C25.2222 14.3404 25.415 14.446 25.5663 14.6011C25.7176 14.7563 25.8207 14.9541 25.8623 15.1694C25.904 15.3847 25.8824 15.6079 25.8003 15.8106C25.7182 16.0134 25.5793 16.1865 25.4012 16.3081C25.2232 16.4297 25.0139 16.4943 24.8 16.4937C24.5141 16.4926 24.2403 16.3752 24.0386 16.1672C23.8369 15.9593 23.7237 15.6777 23.724 15.3843L23.723 15.3894Z" fill="white"/>
</svg>
