<svg width="200" height="40" viewBox="0 0 200 40" fill="none" xmlns="http://www.w3.org/2000/svg">
<path d="M141.028 18.2709H139.048V11.834H141.028C141.472 11.7989 141.919 11.8562 142.34 12.0021C142.761 12.148 143.147 12.3795 143.474 12.682C143.802 12.9844 144.063 13.3513 144.241 13.7595C144.42 14.1677 144.512 14.6085 144.512 15.0541C144.512 15.4997 144.42 15.9405 144.241 16.3487C144.063 16.7569 143.802 17.1238 143.474 17.4263C143.147 17.7287 142.761 17.9601 142.34 18.1061C141.919 18.252 141.472 18.3092 141.028 18.2742M140.855 12.665H140.021V17.4456H140.855C142.309 17.4456 143.51 16.6954 143.51 15.0541C143.51 13.4128 142.309 12.665 140.855 12.665Z" fill="white"/>
<path d="M146.079 18.2715V11.8337H149.548V12.6756H147.054V14.6204H149.145V15.454H147.054V17.4321H149.901V18.2723L146.079 18.2715Z" fill="white"/>
<path d="M153.219 15.4463H152.249V18.2713H151.282V11.8344H153.219C153.467 11.8167 153.716 11.8503 153.951 11.9332C154.186 12.016 154.401 12.1463 154.583 12.3158C154.765 12.4854 154.91 12.6907 155.009 12.9189C155.109 13.147 155.16 13.3932 155.16 13.642C155.16 13.8909 155.109 14.137 155.009 14.3652C154.91 14.5934 154.765 14.7986 154.583 14.9682C154.401 15.1378 154.186 15.2681 153.951 15.3509C153.716 15.4337 153.467 15.4674 153.219 15.4497M153.046 12.6655H152.249V14.6211H153.046C153.185 14.6383 153.326 14.6258 153.459 14.5845C153.592 14.5433 153.716 14.4741 153.82 14.3817C153.925 14.2892 154.009 14.1756 154.066 14.0483C154.123 13.921 154.153 13.7829 154.153 13.6433C154.153 13.5036 154.123 13.3656 154.066 13.2383C154.009 13.111 153.925 12.9974 153.82 12.9049C153.716 12.8125 153.592 12.7433 153.459 12.702C153.326 12.6607 153.185 12.6483 153.046 12.6655Z" fill="white"/>
<path d="M160.19 18.2718L159.495 16.6047H156.995L156.298 18.2718H155.34L158.085 11.7424H158.438L161.181 18.2718H160.19ZM158.523 14.2557C158.419 13.9974 158.328 13.7339 158.252 13.4663H158.229C158.159 13.736 158.069 13.9999 157.958 14.2557L157.321 15.8295H159.161L158.523 14.2557Z" fill="white"/>
<path d="M166.457 18.27L164.43 15.445H163.513V18.27H162.547V11.8331H164.587C164.834 11.8183 165.082 11.8539 165.315 11.9379C165.548 12.0219 165.761 12.1524 165.942 12.3216C166.123 12.4907 166.268 12.695 166.368 12.9218C166.467 13.1487 166.519 13.3934 166.521 13.6411C166.53 14.0004 166.426 14.3535 166.224 14.6505C166.022 14.9475 165.731 15.1735 165.394 15.2966L167.594 18.2733L166.457 18.27ZM164.419 12.6608H163.516V14.6164H164.419C164.558 14.6336 164.698 14.6212 164.832 14.5799C164.965 14.5386 165.088 14.4694 165.193 14.377C165.297 14.2845 165.381 14.1709 165.439 14.0436C165.496 13.9163 165.526 13.7783 165.526 13.6386C165.526 13.499 165.496 13.361 165.439 13.2337C165.381 13.1064 165.297 12.9927 165.193 12.9003C165.088 12.8078 164.965 12.7386 164.832 12.6974C164.698 12.6561 164.558 12.6436 164.419 12.6608Z" fill="white"/>
<path d="M170.533 12.6723V18.2715H169.55V12.6723H167.483V11.8337H172.602V12.6756L170.533 12.6723Z" fill="white"/>
<path d="M180.152 18.2701L179.889 15.36C179.849 14.9257 179.806 14.3714 179.789 13.8996H179.771C179.566 14.3531 179.253 14.9774 179.041 15.3901L177.55 18.3184H177.185L175.672 15.3901C175.449 14.9658 175.172 14.3897 174.953 13.9154H174.928C174.91 14.4106 174.861 14.9783 174.833 15.36L174.582 18.2701H173.714L174.268 11.8298H174.872L176.593 15.1441C176.854 15.6443 177.186 16.302 177.398 16.7955H177.419C177.618 16.302 177.93 15.6793 178.203 15.1441L179.899 11.8298H180.508L181.084 18.2701H180.152Z" fill="white"/>
<path d="M182.697 18.2715V11.8337H186.173V12.6756H183.679V14.6204H185.768V15.454H183.679V17.4321H186.526V18.2723L182.697 18.2715Z" fill="white"/>
<path d="M193.374 18.4124L190.356 15.1122C189.87 14.587 189.316 13.9394 188.87 13.415L188.85 13.4267C188.87 14.0102 188.87 14.5562 188.87 15.0422V18.2715H187.893V11.8337H188.568L191.332 14.8613C191.705 15.2781 192.291 15.9224 192.687 16.4059L192.705 16.3976C192.687 15.8974 192.687 15.3448 192.687 14.8796V11.8337H193.665V18.419L193.374 18.4124Z" fill="white"/>
<path d="M197.928 12.6723V18.2715H196.949V12.6723H194.88V11.8337H200V12.6756L197.928 12.6723Z" fill="white"/>
<path d="M140.597 28.4824C140.012 28.4906 139.437 28.3418 138.93 28.0514L138.707 26.9794C139.265 27.4016 139.945 27.6322 140.645 27.6371C141.362 27.6371 141.836 27.2337 141.836 26.6368C141.836 26.0808 141.494 25.7057 140.718 25.4565C139.566 25.0813 138.959 24.4353 138.959 23.5467C138.964 23.293 139.023 23.0432 139.132 22.8136C139.24 22.5841 139.395 22.3798 139.588 22.2141C139.78 22.0484 140.005 21.9249 140.248 21.8516C140.491 21.7783 140.747 21.7569 140.999 21.7887C141.493 21.7752 141.98 21.9071 142.401 22.168L142.21 22.9707C141.837 22.7295 141.403 22.5999 140.959 22.5973C140.831 22.5817 140.702 22.5924 140.578 22.6287C140.454 22.665 140.339 22.7261 140.24 22.8083C140.141 22.8906 140.059 22.9922 140.001 23.1069C139.942 23.2217 139.908 23.3473 139.899 23.4759C139.899 23.8993 140.262 24.2428 140.939 24.4762C142.058 24.8596 142.817 25.459 142.817 26.5484C142.817 27.6979 142.05 28.4824 140.596 28.4824" fill="white"/>
<path d="M146.571 22.7611V28.3661H145.592V22.7611H143.522V21.9275H148.638V22.7611H146.571Z" fill="white"/>
<path d="M152.687 28.4845C152.028 28.4714 151.388 28.2641 150.847 27.8887C150.306 27.5132 149.887 26.9863 149.644 26.374C149.401 25.7617 149.344 25.0913 149.48 24.4468C149.616 23.8022 149.94 23.2123 150.41 22.7509C150.881 22.2895 151.477 21.9772 152.124 21.8531C152.771 21.729 153.44 21.7987 154.047 22.0534C154.655 22.3081 155.174 22.7365 155.539 23.2849C155.904 23.8333 156.099 24.4772 156.1 25.136C156.102 25.5818 156.014 26.0234 155.843 26.4348C155.671 26.8461 155.419 27.2189 155.101 27.5311C154.782 27.8433 154.405 28.0885 153.99 28.2523C153.576 28.416 153.133 28.495 152.687 28.4845ZM152.687 22.6436C152.189 22.627 151.697 22.7597 151.275 23.0246C150.852 23.2895 150.519 23.6745 150.317 24.1303C150.115 24.5861 150.054 25.0918 150.142 25.5825C150.229 26.0733 150.462 26.5266 150.809 26.8843C151.156 27.2421 151.602 27.488 152.09 27.5904C152.578 27.6928 153.085 27.647 153.547 27.4591C154.008 27.2711 154.403 26.9494 154.681 26.5353C154.959 26.1212 155.106 25.6337 155.104 25.1352C155.115 24.8113 155.061 24.4886 154.944 24.1862C154.827 23.8839 154.651 23.6082 154.425 23.3757C154.2 23.1431 153.929 22.9584 153.631 22.8326C153.332 22.7068 153.011 22.6426 152.687 22.6436Z" fill="white"/>
<path d="M161.168 28.3693L159.137 25.5352H158.227V28.3693H157.261V21.9274H159.304C159.551 21.9136 159.798 21.9499 160.031 22.0344C160.264 22.1188 160.477 22.2495 160.658 22.4186C160.839 22.5877 160.984 22.7917 161.084 23.0184C161.184 23.245 161.237 23.4895 161.24 23.7371C161.249 24.0963 161.144 24.4492 160.942 24.7458C160.739 25.0424 160.448 25.2678 160.11 25.3901L162.311 28.3693H161.168ZM159.128 22.7544H158.229V24.7149H159.128C159.267 24.7321 159.408 24.7197 159.542 24.6783C159.676 24.6369 159.799 24.5675 159.904 24.4748C160.009 24.3821 160.093 24.2682 160.15 24.1406C160.208 24.013 160.238 23.8746 160.238 23.7346C160.238 23.5947 160.208 23.4563 160.15 23.3287C160.093 23.2011 160.009 23.0871 159.904 22.9944C159.799 22.9018 159.676 22.8324 159.542 22.791C159.408 22.7496 159.267 22.7371 159.128 22.7544Z" fill="white"/>
<path d="M163.367 28.3665V21.9246H166.839V22.7581H164.35V24.7096H166.438V25.5498H164.35V27.5262H167.195V28.3598L163.367 28.3665Z" fill="white"/>
<path d="M60.6105 11.0701C53.9352 11.0701 49.9307 15.1188 49.9307 20.1277C49.9307 25.1209 53.9318 29.1612 60.6105 29.1612C67.2891 29.1612 71.2912 25.1217 71.2912 20.1277C71.2912 15.1188 67.29 11.0701 60.6105 11.0701ZM60.6105 27.219C57.4145 27.219 54.9847 24.0397 54.9847 20.1277C54.9847 16.2158 57.4145 13.0173 60.6105 13.0173C63.8064 13.0173 66.2522 16.2058 66.2522 20.1277C66.2522 24.0497 63.8156 27.219 60.6105 27.219Z" fill="white"/>
<path d="M72.2061 13.7453H79.2356V28.4164H84.5289V13.7453H90.4564V11.7356H72.2061V13.7453Z" fill="white"/>
<path d="M92.3955 13.7453H98.3256V28.4164H103.616V13.7453H110.653V11.7356H92.398L92.3955 13.7453Z" fill="white"/>
<path d="M39.3978 25.4273V11.7366H34.313V26.4226C34.3167 26.9534 34.5305 27.4612 34.9076 27.8349C35.2847 28.2085 35.7944 28.4176 36.3253 28.4165H49.3366V26.4159H40.404C40.1397 26.4175 39.8855 26.3144 39.697 26.1291C39.5085 25.9439 39.4009 25.6916 39.3978 25.4273Z" fill="white"/>
<path d="M113.53 13.7272V26.4227C113.534 26.9548 113.748 27.4636 114.127 27.8376C114.505 28.2116 115.017 28.4201 115.549 28.4174H129.416V26.4419H119.639C119.506 26.4446 119.375 26.421 119.251 26.3723C119.128 26.3236 119.015 26.2509 118.92 26.1584C118.825 26.0659 118.75 25.9553 118.698 25.8333C118.646 25.7112 118.619 25.58 118.618 25.4474V20.5368H129.259V18.592H118.618V14.7001C118.619 14.5676 118.647 14.4367 118.699 14.315C118.751 14.1932 118.827 14.083 118.922 13.9906C119.017 13.8982 119.129 13.8254 119.252 13.7765C119.375 13.7276 119.507 13.7035 119.639 13.7056H129.416V11.7367H115.549C115.285 11.7342 115.024 11.7839 114.78 11.8827C114.536 11.9815 114.313 12.1276 114.126 12.3126C113.938 12.4975 113.789 12.7177 113.687 12.9605C113.584 13.2032 113.531 13.4638 113.53 13.7272Z" fill="white"/>
<path d="M13.0458 33.0985C11.9506 33.1014 10.8656 32.8872 9.85373 32.4681C8.84185 32.049 7.92312 31.4334 7.15072 30.6569L2.43765 25.943C0.876664 24.3785 0 22.2588 0 20.0488C0 17.8387 0.876664 15.719 2.43765 14.1545L7.15155 9.44144C8.71481 7.87821 10.835 7 13.0458 7C15.2566 7 17.3768 7.87821 18.94 9.44144L23.6539 14.1545C25.215 15.7191 26.0917 17.839 26.0917 20.0492C26.0917 22.2593 25.215 24.3792 23.6539 25.9438L18.94 30.6569C18.1678 31.4334 17.2492 32.049 16.2375 32.4681C15.2257 32.8872 14.1409 33.1015 13.0458 33.0985ZM12.7332 11.5679C12.3375 11.5592 11.9442 11.6308 11.577 11.7783C11.2098 11.9259 10.8763 12.1464 10.5967 12.4265C9.42056 13.5935 9.20382 15.6341 9.22883 17.1396C9.23967 17.7747 9.39555 23.4323 11.7504 26.4515C12.0906 26.898 12.501 27.2862 12.9658 27.601C13.5348 28.0052 14.2143 28.2246 14.9122 28.2295C15.1575 28.2281 15.4021 28.2047 15.6432 28.1595C15.6548 28.1577 15.6662 28.1552 15.6774 28.152C17.0428 27.8361 18.5316 26.5765 19.6603 24.7827C19.712 24.7008 19.747 24.6096 19.7632 24.5141C19.7794 24.4187 19.7764 24.3209 19.7544 24.2267C19.7221 24.0844 19.6483 23.9549 19.5423 23.8546C19.4363 23.7543 19.303 23.6876 19.1592 23.6631C19.0153 23.6386 18.8675 23.6572 18.7342 23.7167C18.601 23.7762 18.4884 23.8739 18.4107 23.9974C17.7416 25.229 16.6638 26.1885 15.3631 26.7107C15.216 26.7375 15.0668 26.7515 14.9172 26.7524C14.5063 26.7497 14.1071 26.6149 13.7785 26.3681C13.4476 26.142 13.1556 25.8636 12.9141 25.5437C11.2469 23.4014 10.7393 19.2368 10.7034 17.1137C10.6743 15.3915 11.0052 14.0987 11.6354 13.4718C11.7802 13.328 11.9531 13.2154 12.1432 13.1412C12.3334 13.0669 12.5367 13.0325 12.7407 13.04H12.8699C13.0735 13.0325 13.2765 13.067 13.4662 13.1412C13.6559 13.2155 13.8284 13.328 13.9727 13.4718C14.6029 14.0978 14.9339 15.389 14.9047 17.1137C14.9352 19.4306 14.3356 21.7123 13.17 23.7148C13.0739 23.8826 13.0475 24.0813 13.0964 24.2683C13.1453 24.4553 13.2657 24.6156 13.4316 24.7148C13.5975 24.8139 13.7957 24.844 13.9836 24.7986C14.1715 24.7531 14.334 24.6358 14.4362 24.4717C15.6921 22.2296 16.3597 19.706 16.3768 17.1362C16.4026 15.6308 16.1859 13.591 15.0089 12.4232C14.7287 12.1428 14.3945 11.9221 14.0265 11.7745C13.6586 11.6269 13.2646 11.5555 12.8682 11.5646L12.7332 11.5679ZM9.75482 26.5724H9.71564C9.50137 26.582 9.29934 26.675 9.15269 26.8315C9.00604 26.988 8.92639 27.1957 8.93074 27.4101C8.93509 27.6246 9.02311 27.8288 9.17598 27.9793C9.32886 28.1297 9.5345 28.2144 9.74899 28.2153H9.78316C9.99717 28.2059 10.199 28.1132 10.3457 27.9571C10.4925 27.801 10.5724 27.5938 10.5686 27.3796C10.5648 27.1654 10.4775 26.9612 10.3254 26.8104C10.1732 26.6596 9.9682 26.5742 9.75399 26.5724H9.75482Z" fill="white"/>
</svg>
