<svg width="84" height="30" viewBox="0 0 84 30" fill="none" xmlns="http://www.w3.org/2000/svg">
<g clip-path="url(#clip0_5593_218791)">
<path d="M29.845 0.218506V15.7226H32.1413V0.218506H29.845ZM26.1678 5.81351H23.2936V7.19576H26.1678V10.4569C25.6078 10.6788 25.1046 10.8006 24.3589 10.8006H21.0932C20.7874 10.8006 20.5401 10.5494 20.5401 10.2422V2.52224H24.7358V1.40656H18.1626V10.8067C18.1626 11.4212 18.6563 11.9181 19.2628 11.9181H24.3589C25.1351 11.9181 25.7616 11.7794 26.1678 11.5207V15.7223H28.4646V0.218506H26.1678V5.81351Z" fill="white"/>
<path d="M9.16302 8.40507V6.8787H14.2137V5.76844H4.69738C4.39067 5.76844 4.1416 5.51997 4.1416 5.20849V4.23513H14.0085V0.479492H1.77275V1.59457H11.6352V3.11432H1.77275V5.76603C1.77275 6.38146 2.26552 6.879 2.87386 6.879H6.78312V8.40537H0.488281V9.52287H15.4976V8.40537H9.16302V8.40507ZM9.22961 10.2354H6.56929C5.86657 13.1829 2.40767 14.6689 1.13783 14.8543L1.80082 15.8446C3.09754 15.6848 6.05293 14.6131 7.90005 12.5741C9.74926 14.6131 12.7032 15.6848 14.0005 15.8446L14.662 14.8543C13.3927 14.6689 9.93322 13.1829 9.22931 10.2354H9.22961Z" fill="white"/>
<path d="M42.1425 8.23665H36.7313C35.8043 8.23665 35.2886 7.68182 35.2886 6.83179V0.501339H37.5729V3.2417H39.9268V0.501339H42.1425V8.23665ZM37.2468 11.2544V10.1086H49.5972V15.9014H47.2962V11.2544H37.2468ZM37.5729 6.69218C37.5729 6.95241 37.6768 7.09172 37.9859 7.09172H39.9268V4.38573H37.5729V6.69188V6.69218ZM49.5969 0.258301V9.12076H47.3643V4.80155H45.8519V9.12076H43.6193V0.258301H45.8519V3.65722H47.3643V0.258301H49.5969Z" fill="white"/>
<path d="M60.242 3.1197C61.1176 3.79695 61.582 4.78478 61.582 5.77382C61.582 7.33397 60.4656 8.80909 58.439 9.2246V11.6013H60.7234C61.8741 11.6013 62.8025 11.5669 63.5913 11.3239V0.258419H65.8938V5.99937H68.2462V7.1437H65.8938V15.7462H63.5913V12.4679C62.7667 12.7282 61.7713 12.7628 60.7234 12.7628H52.0483V11.601H56.2577V9.24149C54.1786 8.86065 53.0279 7.35086 53.0279 5.77352C53.0279 4.78448 53.492 3.79665 54.3679 3.1194H52.2547V2.00944H56.1198V0.0153809H58.4393V2.00974H62.3384V3.1197H60.2423H60.242ZM57.3057 8.25396C58.4904 8.25396 59.4004 7.23024 59.4004 5.77382C59.4004 4.3174 58.4904 3.29368 57.3057 3.29368C56.121 3.29368 55.2265 4.3174 55.2265 5.77382C55.2265 7.23024 56.1195 8.25396 57.3057 8.25396Z" fill="white"/>
<path d="M75.4047 1.94067V2.0441C75.4047 4.80195 77.1906 6.53729 79.3549 7.63006L78.5817 8.54884C77.397 8.18519 75.4388 7.17836 74.2027 5.42733C72.9821 7.19584 71.0072 8.35767 69.7869 8.72132L69.0322 7.81972C71.0075 6.90094 72.931 4.85502 72.931 2.09717V1.94037H69.4948V0.796038H78.892V1.94067H75.4044H75.4047ZM83.5117 10.1262V15.9018H73.4295C72.4499 15.9018 72.0724 15.3642 72.0724 14.5847V10.1262H83.5117ZM81.2104 14.7575V11.272H74.3738V14.1333C74.3738 14.5141 74.5291 14.7575 74.9576 14.7575H81.2104ZM83.5117 0.241211V8.94717H81.2104V5.01031H77.9465V3.86598H81.2104V0.241211H83.5117Z" fill="white"/>
<path d="M16.7387 29.9797C16.6616 29.9797 16.5876 29.9812 16.5177 29.9843C16.4469 29.9867 16.3767 29.971 16.3069 29.9315C16.2367 29.8923 16.1683 29.8278 16.1017 29.7352C16.0348 29.6426 15.9658 29.5012 15.8959 29.3103L13.9694 24.1221V29.98H12.6323V22.7293C12.6323 22.5444 12.6879 22.3885 12.8002 22.2604C12.9131 22.1331 13.0881 22.0695 13.3273 22.0698H14.7691C15.0012 22.0701 15.1962 22.1331 15.3533 22.2607C15.5116 22.3882 15.6221 22.5438 15.6851 22.7284L17.2545 27.2367L18.9388 22.7287C19.0087 22.5438 19.1189 22.3882 19.2703 22.2607C19.4214 22.1331 19.6129 22.0701 19.8443 22.0698H21.4023C21.6344 22.0701 21.8064 22.1328 21.9184 22.2607C22.0307 22.3879 22.0868 22.5438 22.0868 22.7287V29.9791H19.8237V23.9837L17.7911 29.3935C17.7353 29.5512 17.6773 29.6667 17.6179 29.7445C17.5582 29.8238 17.497 29.8799 17.4333 29.9146C17.3706 29.9517 17.3037 29.9707 17.2332 29.9728C17.1631 29.9761 17.0962 29.9791 17.0338 29.9791H16.7387V29.9797Z" fill="white"/>
<path d="M38.1136 29.9801L37.3553 28.3949L33.0599 28.3955L32.2915 29.9801H30.8174L34.597 22.5913C34.6741 22.4342 34.7813 22.3099 34.9178 22.2146C35.0549 22.119 35.2143 22.0708 35.3974 22.0708H36.1557C36.3304 22.0708 36.4904 22.1193 36.6341 22.2146C36.778 22.3099 36.8885 22.4348 36.9656 22.5919L40.4827 29.9804H38.1139L38.1136 29.9801ZM33.5124 27.4605H36.9029L35.6181 24.7602C35.5614 24.6604 35.5037 24.569 35.444 24.4885C35.3846 24.4062 35.3087 24.3667 35.2182 24.367C35.1194 24.367 35.0351 24.408 34.9653 24.4933C34.8951 24.5787 34.8422 24.6676 34.807 24.7605L33.5121 27.4608L33.5124 27.4605Z" fill="white"/>
<path d="M51.6131 28.4801C51.6131 28.6444 51.6412 28.7747 51.6974 28.8733C51.7541 28.9731 51.876 29.0228 52.0665 29.0228H55.8987V29.9799H50.3182C50.0097 29.9799 49.7705 29.894 49.6027 29.7245C49.4339 29.5541 49.3491 29.2879 49.3491 28.9269L49.3497 22.0703H51.6128V28.4798L51.6131 28.4801Z" fill="white"/>
<path d="M67.0814 28.4799C67.0814 28.6442 67.1095 28.7745 67.1656 28.8731C67.2221 28.9732 67.3445 29.0226 67.5345 29.0233H71.367V29.98H65.7865C65.4774 29.9791 65.2385 29.8947 65.0703 29.724C64.9019 29.554 64.8183 29.2889 64.8183 28.928L64.8174 22.0698H67.0814V28.4799Z" fill="white"/>
</g>
<defs>
<clipPath id="clip0_5593_218791">
<rect width="84" height="30" fill="white"/>
</clipPath>
</defs>
</svg>
