<svg width="296" height="302" viewBox="0 0 296 302" fill="none" xmlns="http://www.w3.org/2000/svg">
<g clip-path="url(#clip0_554_58872)">
<path d="M89.4012 290.379L100.083 251.148L105.079 252.5L94.472 291.456L119.858 265.352L130.656 301.255C133.651 290.273 135.62 282.1 136.573 276.746C137.526 271.381 137.822 266.228 137.441 261.275L141.602 262.405L130.92 301.635L125.193 300.083L115.941 270.251L117.052 268.805L94.6202 291.794L89.3906 290.379H89.4012Z" fill="black"/>
<path d="M87.6756 240.525C91.4126 243.175 93.7521 246.449 94.7049 250.356C95.6576 254.263 94.9166 257.917 92.4923 261.328C90.0364 264.77 86.8076 266.682 82.7954 267.062C78.7832 267.442 74.9087 266.312 71.1824 263.662C67.4772 261.032 65.1588 257.769 64.2061 253.862C63.2533 249.955 64.0049 246.28 66.4609 242.837C68.8852 239.427 72.114 237.536 76.1261 237.156C80.1383 236.776 83.9916 237.895 87.6968 240.525H87.6756ZM87.5698 240.662C84.9762 238.825 82.2132 238.35 79.2914 239.247C76.3696 240.145 73.596 242.415 70.9918 246.079C68.377 249.733 67.1279 253.102 67.2231 256.164C67.3184 259.226 68.6735 261.687 71.2671 263.524C73.8924 265.383 76.6766 265.869 79.609 264.95C82.5413 264.042 85.3149 261.75 87.9297 258.097C90.5445 254.432 91.7937 251.085 91.6772 248.033C91.5608 244.981 90.1951 242.531 87.5698 240.662Z" fill="black"/>
<path d="M43.0855 236.903C41.8681 235.446 41.1376 233.978 40.873 232.511C40.6083 231.043 40.7565 229.786 41.3282 228.741C41.8998 227.695 42.715 226.819 43.7842 226.101C44.8534 225.393 46.0602 224.96 47.3941 224.802L47.5105 224.939C46.346 225.963 45.3298 227.072 44.4723 228.287C43.6148 229.501 43.0855 230.948 42.8632 232.637C42.6515 234.327 43.0855 235.826 44.1865 237.136C45.4462 238.656 47.1294 239.459 49.2149 239.543C51.3004 239.628 53.3329 239.248 55.3019 238.392C57.271 237.548 59.24 236.407 61.2196 234.96L71.033 226.84L74.2724 230.726L54.9102 246.745C53.534 245.52 51.8297 244.739 49.7971 244.412L59.4729 236.397C58.0332 237.336 56.6146 238.097 55.2067 238.677C53.7987 239.258 52.359 239.67 50.8769 239.881C49.3949 240.103 47.9869 239.966 46.6319 239.469C45.2874 238.973 44.1018 238.118 43.0855 236.893V236.903Z" fill="black"/>
<path d="M38.7774 192.298L38.6503 192.034C41.7415 191.738 44.6844 192.319 47.4792 193.766C50.2739 195.212 52.4441 197.514 53.9791 200.693C55.9058 204.664 56.2657 208.476 55.0377 212.119C53.8097 215.773 51.3643 218.476 47.7015 220.25C43.9964 222.045 40.3124 222.256 36.6495 220.884C32.9867 219.511 30.1179 216.702 28.0536 212.457C26.2222 208.697 25.8411 205.223 26.8997 202.034C27.9583 198.845 30.012 196.48 33.0502 194.927L33.0714 194.98L33.1455 194.874L43.7211 216.617L43.8799 216.543C47.1934 214.938 49.3635 212.7 50.3798 209.817C51.3961 206.934 51.0891 203.787 49.4694 200.355C48.3049 197.947 46.7488 196.036 44.8221 194.6C42.8954 193.164 40.8734 192.403 38.7562 192.308L38.7774 192.298ZM28.4029 212.488C29.832 215.329 31.9175 217.103 34.6805 217.811C37.4435 218.518 40.397 218.159 43.5306 216.723L34.8181 198.929C31.8117 200.471 29.6733 202.456 28.3923 204.875C27.1114 207.303 27.1114 209.838 28.4029 212.488Z" fill="black"/>
<path d="M0 135.475L40.6615 132.719L41.0108 137.872L0.645757 140.618L33.6746 156.014L3.18644 177.936C14.5772 177.165 22.9614 176.352 28.3498 175.497C33.7381 174.652 38.7242 173.237 43.2975 171.252L43.5939 175.539L2.93237 178.295L2.5301 172.382L27.7675 153.902L29.5037 154.483L0.370516 140.871L0 135.485V135.475Z" fill="black"/>
<path d="M45.9431 117.322C44.7257 121.726 42.4497 125.052 39.0938 127.28C35.738 129.519 32.0435 130.079 27.9995 128.97C23.9239 127.851 21.0127 125.485 19.2765 121.853C17.5404 118.22 17.2757 114.207 18.4826 109.804C19.6788 105.432 21.9654 102.137 25.3106 99.8985C28.6665 97.6703 32.3822 97.1001 36.4579 98.2194C40.5018 99.3282 43.3918 101.694 45.128 105.326C46.8641 108.959 47.1393 112.951 45.9325 117.322H45.9431ZM45.7737 117.28C46.6206 114.218 46.1125 111.472 44.2705 109.033C42.4285 106.604 39.3267 104.788 34.9864 103.594C30.6461 102.412 27.0468 102.38 24.1991 103.531C21.3514 104.682 19.4988 106.784 18.6625 109.846C17.805 112.951 18.3132 115.717 20.1763 118.157C22.0395 120.596 25.1413 122.412 29.4922 123.595C33.8325 124.788 37.4212 124.799 40.2583 123.648C43.0954 122.497 44.9374 120.374 45.7843 117.27L45.7737 117.28Z" fill="black"/>
<path d="M34.0873 74.3014C35.0506 72.6646 36.1728 71.4713 37.4643 70.7216C38.7558 69.9718 39.9944 69.6867 41.1695 69.8557C42.3445 70.0246 43.4561 70.4998 44.4935 71.2601C45.531 72.0205 46.3461 73.0025 46.9495 74.2064L46.8648 74.3542C45.5098 73.6045 44.1018 73.0342 42.6727 72.6541C41.233 72.2633 39.6874 72.2633 38.0254 72.6329C36.3633 73.0131 35.1036 73.9318 34.2461 75.4102C33.251 77.1103 33.071 78.9583 33.7062 80.9436C34.3414 82.9289 35.4 84.7029 36.8715 86.2552C38.3429 87.8075 40.1002 89.2648 42.1328 90.627L53.1424 97.0475L50.5911 101.409L28.8789 88.7474C29.567 87.0367 29.7152 85.1781 29.3235 83.1506L40.1849 89.476C38.8087 88.4517 37.6019 87.3746 36.5751 86.2552C35.5482 85.1359 34.6695 83.9215 33.9603 82.6121C33.251 81.3026 32.8911 79.9298 32.9017 78.4937C32.9017 77.0681 33.3145 75.6636 34.1191 74.2908L34.0873 74.3014Z" fill="black"/>
<path d="M74.5888 54.9551L74.79 54.7439C76.1344 57.5423 76.6002 60.499 76.1979 63.6142C75.7956 66.7294 74.3771 69.5595 71.9211 72.0938C68.8511 75.2724 65.3788 76.9092 61.5255 77.0253C57.6721 77.1309 54.2739 75.7792 51.3416 72.9597C48.3774 70.1086 46.9166 66.7294 46.9377 62.8328C46.9695 58.9256 48.6209 55.2824 51.9132 51.8821C54.8244 48.8726 57.9579 47.3203 61.3243 47.2147C64.6907 47.1196 67.6231 48.2179 70.132 50.5305L70.0897 50.5727L70.2167 50.615L53.3953 67.9966L53.5223 68.1127C56.1795 70.6682 59.0377 71.9249 62.0971 71.8826C65.1565 71.8404 68.0254 70.4676 70.6931 67.7643C72.5563 65.8424 73.8266 63.7304 74.5147 61.4389C75.2028 59.1368 75.224 56.9826 74.5888 54.9656V54.9551ZM52.0191 52.1884C49.8383 54.501 48.8856 57.0671 49.1714 59.8971C49.4572 62.7272 50.8123 65.3672 53.2471 67.8171L66.9985 53.5295C64.5108 51.2485 61.9066 49.918 59.1859 49.559C56.4653 49.1999 54.0728 50.0764 52.0297 52.1884H52.0191Z" fill="black"/>
<path d="M117.887 0.625L131.628 38.9047L126.748 40.6471L113.113 2.64194L107.259 38.5351L77.8082 15.2505C81.651 25.9688 84.721 33.7937 87.0182 38.7358C89.3048 43.6778 92.0254 48.0707 95.1801 51.9145L91.1256 53.3612L77.3848 15.0815L82.9743 13.0857L107.672 32.2731L107.587 34.1L112.796 2.44131L117.887 0.625Z" fill="black"/>
<path d="M148.608 39.454C144.035 39.7602 140.139 38.6937 136.931 36.2755C133.713 33.8467 131.966 30.552 131.691 26.3808C131.405 22.1674 132.697 18.6509 135.566 15.8209C138.435 12.9908 142.15 11.428 146.724 11.1217C151.254 10.826 155.129 11.882 158.347 14.3108C161.565 16.7396 163.312 20.0554 163.598 24.2688C163.873 28.44 162.582 31.9459 159.723 34.7759C156.855 37.606 153.16 39.1689 148.629 39.4751L148.608 39.454ZM148.597 39.285C151.773 39.0738 154.208 37.701 155.912 35.1561C157.606 32.6217 158.305 29.1053 158.008 24.6279C157.712 20.1505 156.548 16.7502 154.526 14.4375C152.504 12.1249 149.91 11.0795 146.734 11.2907C143.516 11.5019 141.06 12.8852 139.366 15.4513C137.672 18.0068 136.974 21.5232 137.27 26.0112C137.567 30.4992 138.731 33.8784 140.753 36.1699C142.775 38.4614 145.39 39.4962 148.608 39.285H148.597Z" fill="black"/>
<path d="M185.195 13.4979C187.069 13.8358 188.582 14.4799 189.726 15.4303C190.869 16.3807 191.568 17.4367 191.811 18.6089C192.055 19.7704 192.002 20.9743 191.642 22.2098C191.282 23.4453 190.636 24.5435 189.715 25.5256L189.546 25.4939C189.779 23.9627 189.832 22.4632 189.704 20.9743C189.577 19.4959 189.048 18.0492 188.117 16.6236C187.185 15.198 185.883 14.3321 184.2 14.0364C182.252 13.6879 180.452 14.1526 178.801 15.4303C177.149 16.7081 175.847 18.3026 174.894 20.214C173.942 22.1253 173.169 24.269 172.587 26.645L170.332 39.169L165.346 38.282L169.781 13.5823C171.623 13.6351 173.434 13.1388 175.201 12.0723L172.978 24.4168C173.465 22.7695 174.069 21.2805 174.757 19.9288C175.455 18.5772 176.292 17.3417 177.287 16.2223C178.271 15.103 179.446 14.3004 180.791 13.8147C182.135 13.3289 183.596 13.2233 185.163 13.5084L185.195 13.4979Z" fill="black"/>
<path d="M217.322 44.8287L217.587 44.9449C215.406 47.1519 212.781 48.6092 209.721 49.3061C206.651 50.0031 203.497 49.6335 200.278 48.1973C196.235 46.4021 193.503 43.7199 192.085 40.1401C190.666 36.5603 190.783 32.9171 192.434 29.2C194.107 25.4513 196.785 22.9169 200.469 21.6075C204.153 20.298 208.155 20.6043 212.484 22.5262C216.317 24.2263 218.847 26.634 220.096 29.7492C221.334 32.8643 221.303 36.0006 219.99 39.1369L219.937 39.1158V39.2425L197.812 29.4218L197.738 29.5802C196.235 32.9382 196.033 36.0534 197.113 38.9046C198.193 41.7558 200.469 43.9734 203.931 45.5574C206.376 46.645 208.8 47.1097 211.203 46.9724C213.606 46.8245 215.639 46.117 217.322 44.8287ZM212.209 22.7268C209.287 21.4702 206.535 21.4596 203.973 22.6951C201.401 23.9306 199.379 26.106 197.907 29.2212L216.073 37.215C217.375 34.1104 217.735 31.217 217.142 28.5348C216.549 25.8525 214.909 23.9201 212.209 22.7268Z" fill="black"/>
<path d="M283.35 66.6989L252.079 92.7608L248.755 88.7903L279.804 62.9079L244.012 69.8141L255.763 34.206C247.008 41.5029 240.698 47.0786 236.835 50.9224C232.971 54.7662 229.774 58.8318 227.243 63.1191L224.48 59.8244L255.752 33.752L259.563 38.3033L250.025 68.0506L248.278 68.5997L279.867 62.5594L283.34 66.7095L283.35 66.6989Z" fill="black"/>
<path d="M256.123 108.516C254.588 104.208 254.556 100.184 256.028 96.4356C257.499 92.6868 260.209 90.1208 264.158 88.7163C268.149 87.3013 271.886 87.5864 275.4 89.5717C278.904 91.5569 281.424 94.6932 282.959 99.0017C284.483 103.268 284.504 107.281 283.043 111.019C281.572 114.768 278.851 117.344 274.86 118.759C270.912 120.164 267.185 119.868 263.671 117.883C260.167 115.898 257.647 112.772 256.133 108.506L256.123 108.516ZM256.282 108.453C257.351 111.441 259.33 113.416 262.242 114.356C265.153 115.296 268.731 115.021 272.965 113.511C277.21 112.011 280.175 109.973 281.847 107.407C283.53 104.841 283.837 102.064 282.768 99.065C281.688 96.0343 279.688 94.0491 276.755 93.1198C273.823 92.18 270.245 92.4651 266 93.9751C261.755 95.4747 258.801 97.5127 257.139 100.068C255.477 102.634 255.181 105.422 256.26 108.453H256.282Z" fill="black"/>
<path d="M290.823 136.098C291.066 137.978 290.907 139.615 290.346 140.998C289.785 142.381 288.981 143.364 287.943 143.944C286.906 144.525 285.741 144.831 284.45 144.863C283.158 144.895 281.909 144.62 280.702 144.029L280.681 143.86C282.216 143.617 283.666 143.216 285.043 142.645C286.419 142.075 287.647 141.135 288.727 139.826C289.806 138.517 290.24 137.006 290.018 135.327C289.764 133.374 288.779 131.8 287.054 130.618C285.328 129.435 283.412 128.675 281.295 128.347C279.178 128.02 276.891 127.936 274.456 128.094L261.817 129.741L261.16 124.725L286.101 121.483C286.609 123.247 287.636 124.82 289.182 126.183L276.711 127.809C278.426 127.777 280.035 127.893 281.539 128.147C283.042 128.4 284.471 128.833 285.847 129.435C287.213 130.037 288.335 130.903 289.214 132.043C290.082 133.184 290.621 134.535 290.833 136.109L290.823 136.098Z" fill="black"/>
<path d="M272.404 176.184L272.383 176.469C269.546 175.191 267.28 173.238 265.565 170.608C263.85 167.968 263.12 164.895 263.353 161.379C263.649 156.975 265.226 153.491 268.106 150.925C270.975 148.359 274.447 147.207 278.512 147.482C282.62 147.757 285.922 149.383 288.431 152.392C290.94 155.391 292.031 159.246 291.713 163.956C291.438 168.127 290.04 171.337 287.542 173.576C285.044 175.814 282.08 176.86 278.671 176.712V176.659L278.554 176.712L280.164 152.604H279.984C276.3 152.35 273.304 153.227 270.996 155.222C268.688 157.218 267.386 160.112 267.09 163.903C266.91 166.564 267.301 169.003 268.265 171.2C269.228 173.396 270.604 175.065 272.393 176.184H272.404ZM291.438 163.765C291.607 160.597 290.676 158.021 288.622 156.046C286.579 154.071 283.826 152.92 280.386 152.625L279.126 172.393C282.503 172.541 285.351 171.875 287.659 170.397C289.966 168.919 291.226 166.712 291.427 163.776L291.438 163.765Z" fill="black"/>
<path d="M274.416 245.563L239.164 225.172L241.768 220.705L276.777 240.948L258.029 209.754L295.588 208.593C285.711 202.88 278.312 198.877 273.368 196.575C268.424 194.273 263.502 192.668 258.6 191.76L260.76 188.043L296.022 208.434L293.048 213.556L261.766 214.802L260.654 213.355L277.158 240.895L274.437 245.573L274.416 245.563Z" fill="black"/>
<path d="M225.707 234.421C229.232 231.496 233.001 230.081 237.034 230.166C241.068 230.25 244.423 231.898 247.102 235.108C249.801 238.35 250.828 241.961 250.172 245.932C249.515 249.902 247.43 253.345 243.905 256.259C240.411 259.153 236.653 260.557 232.62 260.483C228.586 260.399 225.22 258.73 222.521 255.488C219.842 252.278 218.826 248.677 219.482 244.717C220.139 240.747 222.214 237.315 225.707 234.421ZM225.813 234.559C223.367 236.586 222.203 239.131 222.319 242.172C222.436 245.224 223.939 248.477 226.819 251.93C229.698 255.383 232.63 257.453 235.626 258.149C238.622 258.836 241.343 258.171 243.788 256.133C246.265 254.073 247.44 251.518 247.313 248.455C247.186 245.393 245.683 242.13 242.804 238.677C239.924 235.224 236.992 233.154 234.007 232.489C231.021 231.813 228.29 232.51 225.813 234.559Z" fill="black"/>
<path d="M210.729 276.472C209.003 277.264 207.394 277.601 205.901 277.475C204.409 277.348 203.234 276.873 202.366 276.06C201.498 275.247 200.862 274.222 200.45 273.008C200.037 271.793 199.931 270.516 200.132 269.185L200.291 269.111C200.979 270.505 201.794 271.762 202.747 272.902C203.7 274.043 204.97 274.93 206.547 275.574C208.125 276.218 209.691 276.176 211.237 275.468C213.037 274.645 214.243 273.23 214.868 271.244C215.482 269.249 215.641 267.2 215.323 265.088C215.006 262.976 214.413 260.779 213.524 258.499L208.188 246.946L212.793 244.834L223.316 267.622C221.77 268.625 220.585 270.072 219.738 271.952L214.476 260.558C215.016 262.184 215.387 263.757 215.588 265.257C215.789 266.767 215.81 268.256 215.641 269.745C215.471 271.234 214.974 272.554 214.148 273.726C213.322 274.898 212.179 275.806 210.739 276.472H210.729Z" fill="black"/>
<path d="M166.458 269.332L166.172 269.396C166.638 266.333 167.908 263.619 169.993 261.265C172.079 258.91 174.842 257.368 178.304 256.65C182.633 255.742 186.423 256.322 189.673 258.392C192.923 260.462 194.966 263.482 195.803 267.463C196.649 271.476 195.961 275.098 193.738 278.308C191.515 281.518 188.096 283.609 183.459 284.581C179.352 285.436 175.89 284.972 173.053 283.166C170.216 281.371 168.406 278.805 167.633 275.489H167.686L167.601 275.373L191.303 270.409L191.272 270.24C190.509 266.64 188.858 264 186.307 262.32C183.756 260.641 180.611 260.166 176.874 260.905C174.249 261.455 172.015 262.489 170.152 264C168.289 265.52 167.061 267.284 166.447 269.311L166.458 269.332ZM183.576 284.264C186.677 283.578 188.911 281.983 190.277 279.48C191.632 276.978 192.002 274.031 191.367 270.652L171.952 274.771C172.725 278.055 174.133 280.61 176.176 282.427C178.219 284.243 180.696 284.866 183.586 284.264H183.576Z" fill="black"/>
</g>
<defs>
<clipPath id="clip0_554_58872">
<rect width="296" height="301" fill="white" transform="translate(0 0.625)"/>
</clipPath>
</defs>
</svg>
