<svg width="37" height="24" viewBox="0 0 37 24" fill="none" xmlns="http://www.w3.org/2000/svg">
<g clip-path="url(#clip0_2125_49704)">
<path d="M36.1582 0H0.158203V24H36.1582V0Z" fill="#112369"/>
<path d="M16.8001 5.96265H16.954L17.5455 6.85298V5.96265H17.6874V7.0968H17.5335L16.942 6.20646V7.0968H16.7991L16.8001 5.96265Z" fill="white"/>
<path d="M18.452 6.73586C18.4553 6.77053 18.4516 6.80552 18.4409 6.83868C18.4303 6.87184 18.4129 6.90248 18.39 6.92871C18.3637 6.95458 18.3325 6.97484 18.2981 6.98824C18.2638 7.00163 18.227 7.0079 18.1902 7.00665C18.0643 7.00665 18.0253 6.93571 18.0253 6.87675C18.0253 6.76584 18.1342 6.74985 18.2191 6.73786C18.2971 6.7266 18.374 6.70888 18.449 6.6849L18.452 6.73586ZM18.0383 6.52802C18.0563 6.46007 18.0782 6.37113 18.2531 6.37113C18.453 6.37113 18.453 6.48705 18.453 6.57098C18.3712 6.59356 18.2876 6.60927 18.2032 6.61795C18.1122 6.62894 17.8794 6.65692 17.8794 6.87476C17.8794 7.01165 17.9793 7.11058 18.1602 7.11058C18.2717 7.11017 18.3789 7.06729 18.46 6.99067C18.4626 7.02549 18.4722 7.05944 18.488 7.09059H18.6339C18.5899 7.01165 18.5899 6.95769 18.5899 6.74685V6.55999C18.5899 6.4181 18.5899 6.25122 18.2711 6.25122C17.9523 6.25122 17.9164 6.43209 17.9014 6.50503L18.0383 6.52802Z" fill="white"/>
<path d="M19.1244 7.09561C19.0916 7.10317 19.0581 7.10719 19.0245 7.1076C18.8316 7.1076 18.8316 6.99168 18.8316 6.85579V6.38414H18.7317V6.27622H18.8316V6.07637L18.9705 5.99243V6.28022H19.1104V6.38813H18.9695V6.86778C18.9695 6.93473 18.9695 6.98169 19.0475 6.98169C19.0683 6.98153 19.089 6.97952 19.1094 6.97569L19.1244 7.09561Z" fill="white"/>
<path d="M19.2454 6.27641H19.3843V7.0968H19.2454V6.27641ZM19.2454 5.96265H19.3843V6.12153H19.2454V5.96265Z" fill="white"/>
<path d="M19.689 6.68681C19.689 6.42001 19.8439 6.37105 19.9308 6.37105C20.0557 6.37105 20.1736 6.46298 20.1736 6.68181C20.1736 6.81171 20.1287 7.00157 19.9308 7.00157C19.8489 7.00157 19.689 6.95461 19.689 6.68681ZM19.5461 6.68681C19.5409 6.78931 19.5693 6.8907 19.627 6.97559C19.6632 7.01996 19.709 7.05558 19.7609 7.0798C19.8128 7.10402 19.8695 7.11622 19.9268 7.11549C19.984 7.11586 20.0406 7.10351 20.0925 7.07931C20.1443 7.05511 20.1901 7.01968 20.2266 6.97559C20.29 6.88919 20.3195 6.78253 20.3095 6.67582C20.3095 6.36205 20.0967 6.25913 19.9238 6.25913C19.8668 6.25784 19.8103 6.26938 19.7584 6.29291C19.7065 6.31643 19.6606 6.35134 19.624 6.39503C19.567 6.48124 19.5397 6.58366 19.5461 6.68681Z" fill="white"/>
<path d="M20.4795 6.27635H20.6044V6.39226C20.6327 6.34848 20.6719 6.31283 20.7181 6.28882C20.7644 6.26481 20.8161 6.25328 20.8682 6.25537C20.916 6.25255 20.9638 6.2621 21.0068 6.28311C21.0499 6.30411 21.0868 6.33585 21.114 6.37528C21.1449 6.44242 21.1573 6.51658 21.15 6.59011V7.09474H21.0081V6.59511C21.0081 6.52416 21.0081 6.37428 20.8362 6.37428C20.7988 6.37291 20.7616 6.38142 20.7284 6.39896C20.6953 6.4165 20.6673 6.44245 20.6474 6.4742C20.6255 6.52734 20.6156 6.58466 20.6184 6.64207V7.08974H20.4795V6.27635Z" fill="white"/>
<path d="M21.8854 6.73586C21.8888 6.77053 21.885 6.80552 21.8744 6.83868C21.8637 6.87184 21.8464 6.90248 21.8235 6.92871C21.7972 6.95463 21.766 6.97491 21.7316 6.98832C21.6972 7.00172 21.6605 7.00796 21.6236 7.00665C21.4987 7.00665 21.4588 6.93571 21.4588 6.87675C21.4588 6.76584 21.5687 6.74985 21.6536 6.73786C21.7316 6.7267 21.8085 6.70899 21.8834 6.6849L21.8854 6.73586ZM21.4677 6.52802C21.4857 6.46007 21.5077 6.37113 21.6816 6.37113C21.8864 6.37113 21.8814 6.48705 21.8814 6.57098C21.7996 6.59356 21.7161 6.60927 21.6316 6.61795C21.5407 6.62894 21.3079 6.65692 21.3079 6.87476C21.3079 7.01165 21.4078 7.11058 21.5887 7.11058C21.7002 7.11037 21.8075 7.06747 21.8884 6.99067C21.8911 7.02549 21.9006 7.05944 21.9164 7.09059H22.0673C22.0223 7.01165 22.0223 6.95769 22.0223 6.74685V6.55999C22.0223 6.4181 22.0223 6.25122 21.7046 6.25122C21.3868 6.25122 21.3498 6.43209 21.3338 6.50503L21.4677 6.52802Z" fill="white"/>
<path d="M22.2393 5.96265H22.3782V7.0968H22.2393V5.96265Z" fill="white"/>
<path d="M23.1926 6.57285H23.4555C23.5474 6.57285 23.7432 6.57285 23.7432 6.76771C23.7432 6.96256 23.5534 6.96156 23.4744 6.96156H23.1926V6.57285ZM23.0417 7.09646H23.4754C23.5585 7.10053 23.6416 7.08726 23.7193 7.05749C23.7741 7.03194 23.8203 6.99088 23.8521 6.93938C23.8839 6.88789 23.8999 6.8282 23.8981 6.76771C23.8998 6.70453 23.8796 6.6427 23.8411 6.59265C23.8025 6.54259 23.7478 6.50737 23.6863 6.49291C23.7331 6.47245 23.7729 6.43875 23.8007 6.39596C23.8286 6.35317 23.8434 6.30316 23.8432 6.25209C23.8427 6.20913 23.8324 6.16685 23.8132 6.12842C23.794 6.08999 23.7663 6.05643 23.7322 6.03026C23.6541 5.9794 23.5614 5.95553 23.4684 5.96231H23.0417V7.09646ZM23.1926 6.09721H23.4185C23.5434 6.09721 23.6963 6.09721 23.6963 6.27208C23.6963 6.44695 23.5374 6.43895 23.4385 6.43895H23.1926V6.09721Z" fill="white"/>
<path d="M24.083 6.27607H24.2089V6.39998C24.2409 6.33602 24.2839 6.25708 24.3838 6.25708C24.4344 6.25767 24.4837 6.27295 24.5257 6.30105L24.4787 6.42995C24.4487 6.41129 24.4142 6.40094 24.3788 6.39998C24.2349 6.39998 24.2209 6.58184 24.2209 6.66577V7.09645H24.082L24.083 6.27607Z" fill="white"/>
<path d="M25.1261 6.73586C25.1294 6.77045 25.1257 6.80535 25.1152 6.83849C25.1047 6.87162 25.0877 6.90231 25.0651 6.92871C25.0387 6.95439 25.0074 6.97453 24.9731 6.98791C24.9388 7.0013 24.9021 7.00767 24.8653 7.00665C24.7394 7.00665 24.6994 6.93571 24.6994 6.87675C24.6994 6.76584 24.8093 6.74985 24.8992 6.73786C24.9769 6.7266 25.0534 6.70889 25.1281 6.6849L25.1261 6.73586ZM24.7134 6.52802C24.7304 6.46007 24.7533 6.37113 24.9262 6.37113C25.1311 6.37113 25.1261 6.48705 25.1261 6.57098C25.0443 6.59364 24.9607 6.60936 24.8763 6.61795C24.7853 6.62894 24.5525 6.65692 24.5525 6.87476C24.5525 7.01165 24.6524 7.11058 24.8333 7.11058C24.9449 7.11078 25.0524 7.06782 25.1331 6.99067C25.1371 7.02547 25.1473 7.05929 25.1631 7.09059H25.3079C25.264 7.01165 25.264 6.95769 25.264 6.74685V6.55999C25.264 6.4181 25.264 6.25122 24.9452 6.25122C24.6264 6.25122 24.5905 6.43209 24.5745 6.50503L24.7134 6.52802Z" fill="white"/>
<path d="M25.481 6.27639H25.6059V6.3923C25.6338 6.34926 25.6722 6.31407 25.7175 6.29011C25.7628 6.26614 25.8135 6.25419 25.8647 6.2554C25.9124 6.25247 25.9601 6.26197 26.003 6.283C26.0459 6.30402 26.0827 6.33583 26.1096 6.37532C26.1413 6.44221 26.1541 6.51651 26.1465 6.59015V7.09477H26.0066V6.59515C26.0066 6.5242 26.0066 6.37432 25.8358 6.37432C25.7982 6.37297 25.7608 6.38149 25.7275 6.39902C25.6942 6.41654 25.6661 6.44248 25.6459 6.47424C25.6243 6.52744 25.6147 6.58477 25.6179 6.64211V7.08978H25.478L25.481 6.27639Z" fill="white"/>
<path d="M26.4531 6.6871C26.4531 6.62615 26.4631 6.37134 26.6719 6.37134C26.8418 6.37134 26.8968 6.53921 26.8968 6.70009C26.8968 6.98088 26.7229 6.99987 26.6779 6.99987C26.597 7.00187 26.4531 6.94491 26.4531 6.6871ZM26.8938 7.0968H27.0227V5.96265H26.8838V6.37034C26.8591 6.3341 26.8256 6.30472 26.7865 6.28497C26.7473 6.26522 26.7038 6.25574 26.66 6.25742C26.4551 6.25742 26.3142 6.4193 26.3142 6.6871C26.3142 6.9549 26.4721 7.11578 26.667 7.11578C26.7123 7.11759 26.7573 7.10701 26.7971 7.08518C26.8369 7.06335 26.87 7.03109 26.8928 6.99187L26.8938 7.0968Z" fill="white"/>
<path d="M17.7564 8.32077C17.7374 8.42994 17.6794 8.52849 17.5932 8.59813C17.507 8.66778 17.3985 8.70379 17.2877 8.69949C17.2166 8.70492 17.1451 8.69438 17.0785 8.66862C17.0119 8.64285 16.952 8.60253 16.903 8.5506C16.8037 8.42363 16.7518 8.26604 16.7561 8.10493C16.7561 7.70523 17.0119 7.52737 17.2887 7.52737C17.3904 7.52138 17.4909 7.55118 17.5729 7.6116C17.6548 7.67202 17.7131 7.75925 17.7374 7.85812L17.5905 7.89409C17.5761 7.82573 17.5382 7.76455 17.4835 7.72113C17.4288 7.6777 17.3606 7.65476 17.2907 7.65627C16.9789 7.65627 16.914 7.92207 16.914 8.10393C16.9093 8.22816 16.9443 8.35065 17.0139 8.45367C17.0471 8.49158 17.0882 8.52177 17.1343 8.54214C17.1804 8.56251 17.2304 8.57256 17.2807 8.57158C17.3621 8.57337 17.4411 8.54477 17.5025 8.49136C17.5638 8.43796 17.6031 8.36359 17.6125 8.2828L17.7564 8.32077Z" fill="white"/>
<path d="M18.0172 8.27079C18.0172 8.00499 18.1711 7.95503 18.2591 7.95503C18.384 7.95503 18.5009 8.04696 18.5009 8.2658C18.5009 8.3957 18.4569 8.58556 18.2591 8.58556C18.1771 8.58556 18.0172 8.53759 18.0172 8.27079ZM17.8743 8.27079C17.8687 8.3732 17.8968 8.47463 17.9543 8.55958C17.9918 8.60345 18.0384 8.63869 18.0908 8.66284C18.1433 8.687 18.2003 8.6995 18.2581 8.6995C18.3158 8.6995 18.3729 8.687 18.4253 8.66284C18.4777 8.63869 18.5243 8.60345 18.5619 8.55958C18.6247 8.47292 18.6538 8.36636 18.6438 8.2598C18.6438 7.94604 18.4309 7.84311 18.2591 7.84311C18.2021 7.84182 18.1456 7.85337 18.0937 7.87689C18.0418 7.90042 17.9959 7.93532 17.9593 7.97901C17.8983 8.06384 17.8671 8.1664 17.8703 8.27079H17.8743Z" fill="white"/>
<path d="M18.8018 7.8601H18.9277V7.97401C18.9532 7.93205 18.9894 7.89762 19.0326 7.87426C19.0758 7.85091 19.1245 7.83947 19.1736 7.84111C19.2227 7.83584 19.2722 7.84713 19.3142 7.8732C19.3562 7.89927 19.3883 7.93862 19.4054 7.985C19.4313 7.94085 19.4685 7.90431 19.513 7.87905C19.5576 7.8538 19.608 7.84071 19.6592 7.84111C19.6952 7.83862 19.7312 7.84423 19.7647 7.85753C19.7982 7.87082 19.8283 7.89147 19.8527 7.91793C19.8772 7.9444 19.8954 7.97601 19.906 8.01045C19.9166 8.04489 19.9193 8.08127 19.914 8.1169V8.68048H19.7741V8.16287C19.7741 8.08293 19.7741 7.96302 19.6282 7.96302C19.5958 7.96227 19.5638 7.96965 19.535 7.98449C19.5062 7.99933 19.4815 8.02115 19.4633 8.04796C19.4369 8.09589 19.4241 8.15015 19.4264 8.20484V8.68148H19.2865V8.14788C19.2865 8.06994 19.2795 7.96302 19.1426 7.96302C19.1084 7.96167 19.0745 7.96983 19.0447 7.98659C19.0149 8.00335 18.9903 8.02805 18.9737 8.05795C18.9468 8.12099 18.9349 8.18938 18.9387 8.2578V8.68348H18.7988L18.8018 7.8601Z" fill="white"/>
<path d="M20.2506 8.27495C20.2506 8.08309 20.3446 7.95019 20.4775 7.95019C20.5774 7.95019 20.6963 8.03313 20.6963 8.26496C20.6963 8.53376 20.5534 8.58572 20.4715 8.58572C20.3895 8.58572 20.2506 8.52177 20.2506 8.27495ZM20.1267 8.99541H20.2686V8.59571C20.2938 8.62761 20.326 8.65324 20.3628 8.67058C20.3995 8.68792 20.4398 8.6965 20.4805 8.69564C20.6613 8.69564 20.8382 8.55174 20.8382 8.26096C20.8382 8.03014 20.7233 7.83728 20.4904 7.83728C20.4436 7.83479 20.3971 7.8451 20.3557 7.86711C20.3143 7.88912 20.2797 7.92199 20.2556 7.96218V7.85626H20.1297L20.1267 8.99541Z" fill="white"/>
<path d="M21.1111 8.1908C21.1116 8.12859 21.1365 8.06906 21.1804 8.02497C21.2243 7.98089 21.2837 7.95576 21.3459 7.95498C21.3893 7.95448 21.432 7.96658 21.4687 7.98981C21.5054 8.01304 21.5346 8.04641 21.5528 8.08588C21.5646 8.1198 21.5723 8.15503 21.5757 8.1908H21.1111ZM21.5707 8.41563C21.559 8.46424 21.5312 8.50747 21.4919 8.5383C21.4525 8.56914 21.4039 8.58577 21.3539 8.58551C21.23 8.58551 21.1141 8.50257 21.1031 8.30472H21.7176C21.7306 7.86205 21.4179 7.84106 21.3459 7.84106C21.0951 7.84106 20.9612 8.02593 20.9612 8.27674C20.9612 8.52755 21.0981 8.69942 21.3539 8.69942C21.4358 8.70545 21.5171 8.68181 21.5829 8.63282C21.6488 8.58383 21.6949 8.51276 21.7126 8.43262L21.5707 8.41563Z" fill="white"/>
<path d="M22.2052 8.67935C22.1724 8.68645 22.1389 8.69046 22.1053 8.69134C21.9115 8.69134 21.9115 8.57642 21.9115 8.44052V7.96788H21.8115V7.85996H21.9115V7.66011L22.0513 7.57617V7.86396H22.1903V7.97187H22.0474V8.45152C22.0474 8.51847 22.0474 8.56543 22.1253 8.56543C22.1458 8.56527 22.1662 8.56326 22.1863 8.55943L22.2052 8.67935Z" fill="white"/>
<path d="M22.3262 7.85991H22.4671V8.68029H22.3282L22.3262 7.85991ZM22.3262 7.54614H22.4671V7.70502H22.3282L22.3262 7.54614Z" fill="white"/>
<path d="M22.9978 8.67935C22.9633 8.68662 22.9282 8.69064 22.8929 8.69134C22.7 8.69134 22.7 8.57642 22.7 8.44052V7.96788H22.6001V7.85996H22.7V7.66011L22.8389 7.57617V7.86396H22.9778V7.97187H22.8389V8.45152C22.8389 8.51847 22.8389 8.56543 22.9169 8.56543C22.9373 8.56538 22.9577 8.56337 22.9778 8.55943L22.9978 8.67935Z" fill="white"/>
<path d="M23.1187 7.85991H23.2576V8.68029H23.1187V7.85991ZM23.1187 7.54614H23.2576V7.70502H23.1187V7.54614Z" fill="white"/>
<path d="M23.3845 7.86011H23.5314L23.7073 8.35074C23.7272 8.40543 23.7442 8.46113 23.7583 8.51762C23.7717 8.46436 23.7884 8.41196 23.8082 8.36073L23.9901 7.86111H24.133L23.8222 8.68149H23.6963L23.3845 7.86011Z" fill="white"/>
<path d="M24.3276 8.1908C24.3279 8.1279 24.3531 8.06767 24.3977 8.02328C24.4422 7.9789 24.5026 7.95398 24.5655 7.95398C24.6091 7.95342 24.6519 7.96547 24.6888 7.9887C24.7256 8.01193 24.755 8.04533 24.7733 8.08488C24.7851 8.11872 24.7922 8.15403 24.7943 8.1898L24.3276 8.1908ZM24.7873 8.41563C24.7758 8.46433 24.748 8.50766 24.7086 8.53852C24.6692 8.56938 24.6205 8.58595 24.5705 8.58551C24.4466 8.58551 24.3306 8.50257 24.3197 8.30472H24.9342C24.9472 7.86205 24.6344 7.84106 24.5625 7.84106C24.3117 7.84106 24.1768 8.02593 24.1768 8.27674C24.1768 8.52755 24.3147 8.69942 24.5705 8.69942C24.6525 8.70549 24.7339 8.68188 24.8 8.63291C24.866 8.58393 24.9122 8.51285 24.9302 8.43262L24.7873 8.41563Z" fill="white"/>
<path d="M25.1041 7.86026H25.229V7.97617C25.2571 7.9335 25.2956 7.89871 25.3409 7.8751C25.3862 7.85149 25.4367 7.83985 25.4878 7.84127C25.5356 7.83854 25.5832 7.84825 25.6262 7.86944C25.6691 7.89063 25.7057 7.92258 25.7326 7.96218C25.7636 8.02895 25.776 8.1028 25.7686 8.17602V8.67565H25.6297V8.17602C25.6297 8.10507 25.6297 7.95618 25.4588 7.95618C25.4212 7.95464 25.3838 7.96307 25.3504 7.98061C25.3171 7.99816 25.289 8.0242 25.269 8.05611C25.247 8.10959 25.2371 8.16725 25.24 8.22498V8.67265H25.1011L25.1041 7.86026Z" fill="white"/>
<path d="M26.0894 8.1908C26.0896 8.12868 26.1143 8.06915 26.158 8.02504C26.2018 7.98093 26.2611 7.95577 26.3232 7.95498C26.3668 7.95442 26.4096 7.96647 26.4465 7.9897C26.4834 8.01293 26.5127 8.04633 26.5311 8.08588C26.5436 8.11956 26.551 8.15492 26.553 8.1908H26.0894ZM26.548 8.41563C26.5367 8.46442 26.509 8.50785 26.4695 8.53874C26.4301 8.56964 26.3813 8.58613 26.3312 8.58551C26.2083 8.58551 26.0924 8.50257 26.0814 8.30472H26.6959C26.7079 7.86205 26.3961 7.84106 26.3232 7.84106C26.0734 7.84106 25.9385 8.02593 25.9385 8.27674C25.9385 8.52755 26.0764 8.69942 26.3312 8.69942C26.4132 8.70549 26.4946 8.68188 26.5607 8.63291C26.6267 8.58393 26.6729 8.51285 26.6909 8.43262L26.548 8.41563Z" fill="white"/>
<path d="M26.9449 8.41463C26.9465 8.44016 26.9534 8.46507 26.9652 8.48778C26.977 8.51049 26.9934 8.53051 27.0133 8.54657C27.0332 8.56263 27.0562 8.57438 27.0809 8.58109C27.1056 8.58779 27.1314 8.58929 27.1567 8.58551C27.3006 8.58551 27.3446 8.50956 27.3446 8.45361C27.3446 8.39765 27.2896 8.36367 27.2077 8.34269L27.1147 8.32071C26.9898 8.29073 26.8289 8.24776 26.8289 8.07689C26.8289 7.94998 26.9289 7.84106 27.1287 7.84106C27.4165 7.84106 27.4435 8.00794 27.4545 8.07089L27.3186 8.08988C27.3124 8.04804 27.2899 8.01036 27.256 7.98508C27.2221 7.9598 27.1796 7.94898 27.1377 7.95498C27.0818 7.95498 26.9608 7.96797 26.9608 8.0609C26.9608 8.13085 27.0188 8.14684 27.1537 8.18181C27.3685 8.23677 27.4845 8.27074 27.4845 8.44061C27.4845 8.57651 27.3685 8.69942 27.1547 8.69942C26.8549 8.69942 26.8179 8.51756 26.804 8.43462L26.9449 8.41463Z" fill="white"/>
<path d="M27.7353 8.41463C27.7371 8.4402 27.7442 8.46513 27.7561 8.48785C27.7679 8.51056 27.7844 8.53057 27.8044 8.54661C27.8244 8.56266 27.8475 8.5744 27.8722 8.58109C27.897 8.58779 27.9228 8.58929 27.9482 8.58551C28.0931 8.58551 28.136 8.50956 28.136 8.45361C28.136 8.39765 28.0811 8.36367 27.9991 8.34269L27.9072 8.32071C27.7813 8.29073 27.6214 8.24776 27.6214 8.07689C27.6214 7.94998 27.7213 7.84106 27.9212 7.84106C28.21 7.84106 28.237 8.00794 28.247 8.07089L28.1111 8.08988C28.1081 8.0692 28.1011 8.04931 28.0905 8.03134C28.0799 8.01337 28.0658 7.99767 28.0491 7.98515C28.0324 7.97262 28.0134 7.9635 27.9931 7.95833C27.9729 7.95315 27.9519 7.95201 27.9312 7.95498C27.8752 7.95498 27.7543 7.96797 27.7543 8.0609C27.7543 8.13085 27.8123 8.14684 27.9462 8.18181C28.162 8.23677 28.2779 8.27074 28.2779 8.44061C28.2779 8.57651 28.162 8.69942 27.9482 8.69942C27.6484 8.69942 27.6104 8.51756 27.5964 8.43462L27.7353 8.41463Z" fill="white"/>
<path d="M28.9275 7.54614H29.0774V8.68029H28.9275V7.54614Z" fill="white"/>
<path d="M29.3291 7.86007H29.455V7.97598C29.4831 7.93331 29.5216 7.89852 29.5669 7.87491C29.6122 7.8513 29.6628 7.83966 29.7138 7.84108C29.7618 7.83818 29.8096 7.8478 29.8527 7.869C29.8958 7.89019 29.9327 7.92224 29.9596 7.96199C29.9906 8.02876 30.003 8.10262 29.9956 8.17583V8.67546H29.8617V8.17583C29.8617 8.10489 29.8617 7.956 29.6898 7.956C29.6522 7.95465 29.6149 7.96317 29.5816 7.9807C29.5483 7.99823 29.5202 8.02416 29.5 8.05592C29.478 8.1094 29.4681 8.16706 29.471 8.2248V8.67246H29.3321L29.3291 7.86007Z" fill="white"/>
<path d="M30.3025 8.2706C30.3025 8.21064 30.3115 7.95484 30.5204 7.95484C30.6902 7.95484 30.7462 8.12271 30.7462 8.28259C30.7462 8.56538 30.5713 8.58236 30.5274 8.58236C30.4454 8.58536 30.3025 8.52841 30.3025 8.2706ZM30.7422 8.68029H30.8721V7.54614H30.7322V7.95384C30.7075 7.91759 30.674 7.88822 30.6349 7.86847C30.5957 7.84871 30.5522 7.83924 30.5084 7.84092C30.3025 7.84092 30.1616 8.0028 30.1616 8.2706C30.1616 8.5384 30.3195 8.69928 30.5144 8.69928C30.5597 8.70093 30.6047 8.69041 30.6446 8.66879C30.6845 8.64718 30.7178 8.61526 30.7412 8.57637L30.7422 8.68029Z" fill="white"/>
<path d="M31.1948 8.1908C31.1953 8.12859 31.2202 8.06906 31.2641 8.02497C31.308 7.98089 31.3674 7.95576 31.4296 7.95498C31.4732 7.95442 31.516 7.96647 31.5529 7.9897C31.5898 8.01293 31.6192 8.04633 31.6375 8.08588C31.6495 8.11971 31.6569 8.155 31.6595 8.1908H31.1948ZM31.6545 8.41563C31.6431 8.46442 31.6154 8.50785 31.576 8.53874C31.5365 8.56964 31.4877 8.58613 31.4376 8.58551C31.3137 8.58551 31.1988 8.50257 31.1868 8.30472H31.8024C31.8144 7.86205 31.5026 7.84106 31.4296 7.84106C31.1798 7.84106 31.0449 8.02593 31.0449 8.27674C31.0449 8.52755 31.1828 8.69942 31.4376 8.69942C31.5196 8.70566 31.601 8.6821 31.6669 8.63308C31.7328 8.58405 31.7788 8.51287 31.7964 8.43262L31.6545 8.41563Z" fill="white"/>
<path d="M32.1281 8.25379L31.8513 7.86108H32.0242L32.1501 8.05394C32.171 8.08392 32.1903 8.11493 32.2081 8.14687C32.2381 8.1019 32.241 8.0979 32.271 8.05594L32.4089 7.86308H32.5748L32.291 8.24779L32.5968 8.68347H32.4259L32.26 8.42566C32.2536 8.41716 32.2479 8.40813 32.243 8.39868L32.2141 8.35571L31.9992 8.68047H31.8293L32.1281 8.25379Z" fill="white"/>
<path d="M6.46368 20.045V20.3638H5.37946V20.7705H6.34076V21.7437H6.00601V21.0792H4.0734V20.7665H5.0467V20.3598H3.98047V20.045H6.00001V19.4834H4.0714V19.1707H6.33877V20.045H6.46368Z" fill="white"/>
<path d="M8.37723 19.1697V19.4335C8.37723 20.083 8.21235 20.5566 7.88259 20.8544C7.63624 21.0732 7.31968 21.1966 6.99023 21.2022V20.8544C7.14349 20.8575 7.29521 20.8235 7.43249 20.7553C7.56977 20.687 7.68853 20.5867 7.77866 20.4627C7.94654 20.2279 8.03148 19.9001 8.03148 19.4824H7.02521V19.1697H8.37723ZM9.2576 20.4008V21.7437H8.92184V19.1697H9.2576V20.087H9.59835V20.4008H9.2576Z" fill="white"/>
<path d="M12.1007 20.3088C12.1068 20.373 12.0886 20.4372 12.0497 20.4887C12.0294 20.5065 12.0058 20.52 11.9802 20.5284C11.9547 20.5368 11.9276 20.5399 11.9008 20.5377H10.1601C10.1337 20.5402 10.107 20.5371 10.0819 20.5287C10.0568 20.5203 10.0337 20.5066 10.0142 20.4887C9.97446 20.4376 9.95586 20.3732 9.96219 20.3088V19.1697H10.3029V19.5314H11.7659V19.1697H12.1007V20.3088ZM10.3019 20.2299H11.7649V19.8302H10.3029L10.3019 20.2299ZM12.2565 21.2901V21.6098H9.8103V21.2901H12.2565Z" fill="white"/>
<path d="M13.6336 19.4774H12.8202V19.1697H13.9733V20.021H13.1739V20.2529H14.2022V19.1697H14.5099V19.6973H14.7737V19.1697H15.0935V20.9054H14.7737V20.006H14.5099V20.9054H14.2022V20.5606H13.018C12.9915 20.5633 12.9648 20.5604 12.9395 20.5521C12.9142 20.5438 12.8909 20.5304 12.8711 20.5127C12.8325 20.4618 12.8144 20.3984 12.8202 20.3348V19.7153H13.6336V19.4774ZM12.9241 20.8674H13.2598V21.418H15.1035V21.7318H13.1239C13.0969 21.7336 13.0697 21.73 13.0441 21.7211C13.0185 21.7122 12.995 21.6981 12.975 21.6798C12.9363 21.6282 12.9182 21.5641 12.9241 21.4999V20.8674Z" fill="white"/>
<path d="M17.9284 19.1697V19.4774H16.1397V20.2139H17.9284V20.5217H15.9998C15.9721 20.5241 15.9442 20.5208 15.9179 20.5118C15.8916 20.5029 15.8674 20.4885 15.8469 20.4697C15.8099 20.4186 15.7929 20.3557 15.799 20.2928V19.1697H17.9284ZM18.0883 21.2911V21.6098H15.6421V21.2911H18.0883Z" fill="white"/>
<path d="M20.0209 19.1697V19.3376C20.0209 19.7412 19.8637 20.0384 19.5493 20.2289C19.2744 20.382 18.9646 20.4616 18.6499 20.4597V20.128C18.9907 20.118 19.2495 20.047 19.4263 19.9141C19.4981 19.8663 19.5568 19.8013 19.5971 19.725C19.6374 19.6488 19.658 19.5637 19.6572 19.4774H18.6859V19.1697H20.0209ZM20.5815 19.3845V19.1697H20.9173V20.3578H20.5815V20.1579H20.1049V19.8452H20.5815V19.6913H20.1049V19.3845H20.5815ZM19.7091 20.7835C19.6647 20.8239 19.6293 20.8733 19.6054 20.9284C19.5814 20.9836 19.5694 21.0431 19.5702 21.1032C19.5696 21.1637 19.5816 21.2237 19.6055 21.2793C19.6295 21.3349 19.6647 21.3849 19.7091 21.426C19.7934 21.5096 19.9072 21.5567 20.0259 21.5569C20.0846 21.5574 20.1429 21.5461 20.1971 21.5236C20.2514 21.5011 20.3006 21.4679 20.3417 21.426C20.3868 21.3853 20.4228 21.3355 20.4473 21.2798C20.4717 21.2242 20.4841 21.164 20.4836 21.1032C20.4843 21.0429 20.4719 20.9831 20.4474 20.9279C20.423 20.8727 20.3869 20.8235 20.3417 20.7835C20.3001 20.7423 20.2508 20.7098 20.1966 20.6878C20.1424 20.6659 20.0844 20.6549 20.0259 20.6556C19.9072 20.6566 19.7935 20.7039 19.7091 20.7875V20.7835ZM20.5745 20.5377C20.6546 20.6087 20.7187 20.696 20.7626 20.7936C20.8066 20.8913 20.8293 20.9971 20.8293 21.1042C20.8293 21.2113 20.8066 21.3172 20.7626 21.4148C20.7187 21.5125 20.6546 21.5997 20.5745 21.6708C20.4235 21.8089 20.2255 21.8843 20.0209 21.8816C19.8162 21.8849 19.618 21.8094 19.4673 21.6708C19.3915 21.5978 19.3313 21.5103 19.2902 21.4135C19.2491 21.3166 19.2281 21.2125 19.2283 21.1073C19.2284 21.0021 19.2499 20.898 19.2913 20.8014C19.3327 20.7047 19.3933 20.6173 19.4693 20.5446C19.621 20.4081 19.8189 20.3342 20.0229 20.3378C20.2261 20.3356 20.4228 20.4094 20.5745 20.5446V20.5377Z" fill="white"/>
<path d="M22.2912 19.4774C22.2919 19.6256 22.341 19.7695 22.4311 19.8871C22.5065 19.9635 22.604 20.0142 22.7098 20.032V20.3228L22.7528 20.3168C22.779 20.3131 22.8053 20.3111 22.8318 20.3108C22.8637 20.3108 22.8897 20.3108 22.9117 20.3108H22.9337V19.1697H23.2415V19.6143H23.5103V19.1697H23.829V20.3608H23.5103V19.9221H23.2415V20.3608H23.2135C23.3579 20.4163 23.4837 20.5116 23.5762 20.6356C23.6752 20.7693 23.7275 20.9319 23.7251 21.0982C23.7278 21.2075 23.7064 21.316 23.6624 21.416C23.6183 21.516 23.5527 21.6051 23.4703 21.6768C23.3168 21.8177 23.115 21.8943 22.9067 21.8906C22.7005 21.8938 22.5011 21.8172 22.3501 21.6768C22.2683 21.6045 22.2033 21.5151 22.1596 21.415C22.1159 21.3149 22.0947 21.2064 22.0973 21.0972C22.0954 20.9334 22.1462 20.7733 22.2422 20.6406C22.3284 20.5143 22.4511 20.4174 22.5939 20.3628C22.5062 20.3388 22.4231 20.3003 22.3481 20.2489C22.2532 20.1839 22.174 20.0986 22.1163 19.9991C22.0402 20.1222 21.933 20.2232 21.8055 20.2918C21.7181 20.3405 21.622 20.3717 21.5227 20.3838V20.03C21.6266 20.0113 21.7222 19.9611 21.7965 19.8861C21.8908 19.7706 21.9433 19.6266 21.9454 19.4774H21.5317V19.1697H22.6979V19.4774H22.2912ZM22.5959 20.7655C22.5492 20.8073 22.512 20.8586 22.4868 20.916C22.4617 20.9734 22.4491 21.0356 22.45 21.0982C22.4493 21.1603 22.4619 21.2218 22.4871 21.2785C22.5123 21.3353 22.5494 21.3859 22.5959 21.427C22.6371 21.4694 22.6863 21.5031 22.7407 21.5261C22.7951 21.5491 22.8536 21.5609 22.9127 21.5609C22.9727 21.5609 23.032 21.5491 23.0874 21.5261C23.1428 21.5031 23.1931 21.4694 23.2355 21.427C23.2812 21.3854 23.3176 21.3346 23.3422 21.2779C23.3668 21.2213 23.3792 21.16 23.3784 21.0982C23.3794 21.0358 23.3672 20.9739 23.3426 20.9165C23.318 20.8592 23.2815 20.8077 23.2355 20.7655C23.1483 20.6829 23.0327 20.6371 22.9127 20.6376C22.7944 20.637 22.6806 20.6829 22.5959 20.7655Z" fill="white"/>
<path d="M25.4718 19.4774H24.4826V19.1697H25.8076V19.9691H24.8173V20.1619H25.8076V20.4697H24.6794C24.6528 20.472 24.626 20.4686 24.6008 20.4596C24.5756 20.4507 24.5527 20.4364 24.5335 20.4177C24.4947 20.3643 24.4766 20.2986 24.4826 20.2329V19.6673H25.4718V19.4774ZM26.4122 19.4065V19.1697H26.7479V20.5446H26.4122V20.2339H26.0124V19.9251H26.4122V19.7173H26.0124V19.4095L26.4122 19.4065ZM26.7479 21.7437H26.4122V21.0443H24.5895V20.7305H26.7479V21.7437Z" fill="white"/>
<path d="M28.8795 19.4824H28.3069C28.3069 19.9168 28.3626 20.2475 28.4738 20.4747C28.5118 20.5676 28.5724 20.6496 28.65 20.7133C28.7276 20.777 28.8199 20.8203 28.9185 20.8394V21.2022C28.7496 21.1831 28.5904 21.1135 28.4618 21.0023C28.3123 20.8604 28.1998 20.6841 28.1341 20.4887C28.0587 20.6864 27.9363 20.8627 27.7773 21.0023C27.6557 21.1059 27.5069 21.1725 27.3486 21.1942V20.8444C27.4461 20.8226 27.5369 20.7775 27.6131 20.713C27.6894 20.6484 27.7488 20.5663 27.7863 20.4737C27.8952 20.2469 27.9532 19.9161 27.9562 19.4844H27.3886V19.1717H28.8795V19.4824ZM29.3262 19.1697H29.662V21.7677H29.3262V19.1697Z" fill="white"/>
<path d="M31.6356 19.1697C31.6292 19.2766 31.6509 19.3833 31.6984 19.4794C31.7459 19.5754 31.8175 19.6574 31.9064 19.7173C32.1121 19.8352 32.3447 19.8982 32.5819 19.9001V20.2279C32.3595 20.2193 32.1399 20.1755 31.9314 20.098C31.734 20.0295 31.564 19.8992 31.4467 19.7263C31.3234 19.8967 31.1508 20.025 30.9521 20.094C30.747 20.171 30.5313 20.2162 30.3125 20.2279V19.9021C30.5491 19.8987 30.7809 19.8351 30.986 19.7173C31.0744 19.6569 31.1457 19.5748 31.1931 19.4789C31.2405 19.383 31.2625 19.2765 31.2568 19.1697H31.6356ZM31.2788 21.7547V20.9154H30.2256V20.5966H32.6728V20.9154H31.6136V21.7547H31.2788Z" fill="white"/>
<path d="M27.0727 14.5312L29.1612 15.1638C29.0467 15.6953 28.8209 16.1966 28.4987 16.6347C28.2055 17.0218 27.8191 17.3284 27.3755 17.526C26.9285 17.7258 26.3596 17.8258 25.6688 17.8258C24.83 17.8258 24.1452 17.7039 23.6142 17.46C23.0833 17.2162 22.6249 16.7875 22.2392 16.174C21.8535 15.5598 21.6606 14.7737 21.6606 13.8158C21.6606 12.5387 22.0001 11.5575 22.6789 10.872C23.3578 10.1865 24.3197 9.84375 25.5648 9.84375C26.5368 9.84375 27.3009 10.0403 27.8572 10.4333C28.4134 10.8263 28.8271 11.4292 29.0983 12.242L26.9948 12.7106C26.945 12.5275 26.8664 12.3534 26.762 12.195C26.6342 12.0175 26.466 11.8729 26.2713 11.7733C26.0696 11.6731 25.847 11.6224 25.6218 11.6254C25.375 11.6145 25.1296 11.6691 24.9108 11.7837C24.6919 11.8983 24.5073 12.0688 24.3757 12.2779C24.1558 12.5997 24.0489 13.1063 24.0489 13.7978C24.0489 14.6531 24.1782 15.2394 24.4366 15.5565C24.6951 15.8736 25.0615 16.0321 25.5358 16.0321C25.9915 16.0321 26.3363 15.9039 26.5701 15.6474C26.8039 15.3909 26.9715 15.0189 27.0727 14.5312Z" fill="white"/>
<path d="M9.66038 9.97852V15.6912L5.66327 9.97852H3.44287V16.7674C3.49783 17.0942 3.6747 17.5668 4.20332 17.6927H5.67926V11.6443L9.66038 17.6927H11.9098V9.97852H9.66038Z" fill="white"/>
<path d="M30.1545 9.97852V16.7474C30.2075 17.0752 30.3804 17.5648 30.921 17.6967H32.5388V9.98251L30.1545 9.97852Z" fill="white"/>
<path d="M17.5077 9.98241C17.0637 9.97682 16.6236 10.0658 16.2166 10.2434C15.8097 10.4211 15.4452 10.6833 15.1474 11.0126V1.99341L10.8755 6.48304L13.0069 5.8655V17.5627H15.0055V16.4755H15.0375C15.3275 16.8618 15.7025 17.1763 16.1334 17.3946C16.5643 17.6129 17.0397 17.7292 17.5227 17.7346C19.2734 17.7346 20.9142 16.4476 20.9142 13.7866C20.9152 11.1695 19.3054 9.98241 17.5077 9.98241ZM17.0081 16.1778C16.585 16.1832 16.1742 16.036 15.8509 15.7631C15.3353 15.3054 15.1324 14.7638 15.1324 13.6886C15.1324 12.1898 15.9318 11.4853 16.9311 11.4853C18.51 11.4853 18.7138 13.0441 18.7138 13.8735C18.7118 15.7031 17.7425 16.1758 17.0081 16.1758V16.1778Z" fill="#F68B1F"/>
</g>
<defs>
<clipPath id="clip0_2125_49704">
<rect width="36" height="24" fill="white" transform="translate(0.158203)"/>
</clipPath>
</defs>
</svg>
