<svg width="38" height="24" viewBox="0 0 38 24" fill="none" xmlns="http://www.w3.org/2000/svg">
<g clip-path="url(#clip0_2125_49694)">
<path d="M37.1615 24V0H0.0131836V24H37.1615Z" fill="#F47B20"/>
<path d="M2.98438 3.15869H5.39622L5.09022 3.54037L7.27173 6.63662V3.88586L6.62024 3.19818H8.80176L8.18975 3.73122V8.66349H7.30793L4.43872 4.72491V8.24232L5.09022 8.66349H3.02386L3.59639 8.28181V3.81019L2.98438 3.15869Z" fill="white"/>
<path d="M14.3197 3.30984L14.0532 3.57965C14.0532 3.57965 11.1346 2.31615 9.71315 4.64902C9.71315 4.64902 8.60429 6.67261 10.21 8.16315C10.7308 8.57961 11.3553 8.84598 12.0164 8.93354C12.6774 9.0211 13.3498 8.92651 13.961 8.65999L14.2901 8.77516L14.5796 6.97203C14.3939 7.3541 14.0975 7.67142 13.729 7.88269C13.3604 8.09396 12.9368 8.18939 12.5133 8.15656C12.5133 8.15656 10.1409 8.08747 10.5621 5.65588C10.5909 5.38612 10.6763 5.12548 10.8126 4.89092C10.9489 4.65635 11.1332 4.45314 11.3532 4.29452C11.5733 4.13589 11.8244 4.02541 12.09 3.97027C12.3556 3.91513 12.6299 3.91657 12.8949 3.9745C12.8949 3.9745 14.2111 4.2805 14.425 5.15903L14.3197 3.30984Z" fill="white"/>
<path d="M19.706 3.50101L19.2848 3.61617C18.8503 3.39334 18.3737 3.26468 17.8861 3.2386C17.3985 3.21252 16.9108 3.2896 16.4551 3.46482C16.4551 3.46482 15.0007 4.38283 15.8431 5.68253C15.8431 5.68253 15.9187 6.29125 17.9851 6.66964C17.9851 6.66964 19.4789 6.99868 18.6728 7.93314C18.6728 7.93314 17.2579 8.96303 15.5732 7.16649L15.6127 8.65703L16.0339 8.61754C16.0339 8.61754 19.0939 9.60465 19.9001 8.08121C19.9001 8.08121 20.8181 6.47551 18.5609 5.77795C18.5609 5.77795 16.0701 5.2811 16.9519 4.25121C16.9519 4.25121 18.2154 3.06668 19.8211 5.16594L19.706 3.48456V3.50101Z" fill="white"/>
<path d="M20.8972 3.38892H23.1543L22.618 3.84628V8.20274L23.0392 8.73907H20.8577L21.4302 8.39687V4.00093L20.8972 3.38892Z" fill="white"/>
<path d="M0 20.2981V23.164C1.42908 22.8301 2.75507 22.1524 3.8629 21.1898C3.8629 21.1898 8.83795 17.3006 9.56512 17.0703C10.1739 16.8024 10.8368 16.6801 11.501 16.7133C12.1653 16.7464 12.8127 16.934 13.3918 17.2611C13.3918 17.2611 16.5308 19.0577 18.7124 17.6428C20.023 16.9694 21.2445 16.1348 22.3482 15.1586L27.2476 11.2989L31.15 8.24219L29.926 6.78784L22.4634 12.523C22.4634 12.523 18.3307 16.1424 16.8369 16.3826C16.8369 16.3826 15.1522 17.3368 12.8193 15.9219C12.8193 15.9219 9.06827 13.9477 5.92926 16.6096C5.92926 16.6096 3.32986 18.3305 2.2572 19.209C2.2572 19.209 1.14505 20.3179 0 20.2981Z" fill="white"/>
<path d="M33.5981 2.08936C33.5981 2.08936 32.7196 3.34957 32.6439 4.57359C32.6439 4.57359 31.4166 5.10663 31.0349 5.75812L33.0091 6.8275L33.2395 8.47268L34.6148 6.71562C34.6148 6.71562 36.3752 6.83079 36.7964 7.13679C36.7964 7.13679 37.1024 6.52478 35.2663 5.03424L36.4147 2.244C36.4147 2.244 35.4572 2.16832 34.0818 3.46802C34.0818 3.46802 33.5455 2.43484 33.5817 2.09265L33.5981 2.08936Z" fill="white"/>
</g>
<defs>
<clipPath id="clip0_2125_49694">
<rect width="37.1582" height="24" fill="white"/>
</clipPath>
</defs>
</svg>
