<svg width="40" height="40" viewBox="0 0 40 40" fill="none" xmlns="http://www.w3.org/2000/svg">
<path d="M40 20C40 8.9543 31.0457 0 20 0C8.9543 0 0 8.9543 0 20C0 31.0457 8.9543 40 20 40C31.0457 40 40 31.0457 40 20Z" fill="black" fill-opacity="0.06"/>
<path d="M28.819 17.1862C28.7334 16.523 28.4872 15.8925 28.103 15.3521C27.6265 14.8588 26.9798 14.5778 26.303 14.5701C23.784 14.3833 20.003 14.3833 20.003 14.3833H19.995C19.995 14.3833 16.217 14.3833 13.695 14.5701C13.0182 14.578 12.3716 14.8589 11.895 15.3521C11.5111 15.8926 11.2653 16.5231 11.18 17.1862C11.068 18.1787 11.0079 19.1767 11 20.1758V21.5747C11.0079 22.5739 11.068 23.5718 11.18 24.5644C11.2651 25.2275 11.5109 25.8581 11.895 26.3984C12.443 26.8974 13.1475 27.1775 13.88 27.1876C15.32 27.3293 20 27.3734 20 27.3734C20 27.3734 23.782 27.3672 26.3 27.1804C26.9769 27.1728 27.6235 26.8918 28.1 26.3984C28.4842 25.858 28.7304 25.2275 28.816 24.5644C28.928 23.5718 28.9881 22.5739 28.996 21.5747V20.1728C28.989 19.1747 28.9299 18.1778 28.819 17.1862ZM18.141 23.2763V18.0852L23.005 20.69L18.141 23.2763Z" fill="white"/>
</svg>
